%TF.GenerationSoftware,KiCad,Pcbnew,(6.0.9)*%
%TF.CreationDate,2023-05-01T17:43:59+02:00*%
%TF.ProjectId,05_Cartucho_MSX_Tang_Nano_9k_Mapper,30355f43-6172-4747-9563-686f5f4d5358,rev?*%
%TF.SameCoordinates,Original*%
%TF.FileFunction,Drillmap*%
%TF.FilePolarity,Positive*%
%FSLAX45Y45*%
G04 Gerber Fmt 4.5, Leading zero omitted, Abs format (unit mm)*
G04 Created by KiCad (PCBNEW (6.0.9)) date 2023-05-01 17:43:59*
%MOMM*%
%LPD*%
G01*
G04 APERTURE LIST*
%ADD10C,0.200000*%
%ADD11C,0.040000*%
%ADD12C,0.080000*%
G04 APERTURE END LIST*
D10*
D11*
X7028500Y-8679500D02*
X7068500Y-8719500D01*
X7068500Y-8679500D02*
X7028500Y-8719500D01*
X7219000Y-8489000D02*
X7259000Y-8529000D01*
X7259000Y-8489000D02*
X7219000Y-8529000D01*
X8362000Y-10013000D02*
X8402000Y-10053000D01*
X8402000Y-10013000D02*
X8362000Y-10053000D01*
X8552500Y-9822500D02*
X8592500Y-9862500D01*
X8592500Y-9822500D02*
X8552500Y-9862500D01*
X9124000Y-12929100D02*
X9164000Y-12969100D01*
X9164000Y-12929100D02*
X9124000Y-12969100D01*
X9545610Y-12393500D02*
X9585610Y-12433500D01*
X9585610Y-12393500D02*
X9545610Y-12433500D01*
X9632000Y-10076500D02*
X9672000Y-10116500D01*
X9672000Y-10076500D02*
X9632000Y-10116500D01*
X9755790Y-13060700D02*
X9795790Y-13100700D01*
X9795790Y-13060700D02*
X9755790Y-13100700D01*
X9759000Y-13249700D02*
X9799000Y-13289700D01*
X9799000Y-13249700D02*
X9759000Y-13289700D01*
X9766800Y-12919600D02*
X9806800Y-12959600D01*
X9806800Y-12919600D02*
X9766800Y-12959600D01*
X9886000Y-10076500D02*
X9926000Y-10116500D01*
X9926000Y-10076500D02*
X9886000Y-10116500D01*
X9918830Y-12995400D02*
X9958830Y-13035400D01*
X9958830Y-12995400D02*
X9918830Y-13035400D01*
X9949500Y-9314500D02*
X9989500Y-9354500D01*
X9989500Y-9314500D02*
X9949500Y-9354500D01*
X10029700Y-12303500D02*
X10069700Y-12343500D01*
X10069700Y-12303500D02*
X10029700Y-12343500D01*
X10140000Y-9505000D02*
X10180000Y-9545000D01*
X10180000Y-9505000D02*
X10140000Y-9545000D01*
X10209500Y-12225800D02*
X10249500Y-12265800D01*
X10249500Y-12225800D02*
X10209500Y-12265800D01*
X10394800Y-12200000D02*
X10434800Y-12240000D01*
X10434800Y-12200000D02*
X10394800Y-12240000D01*
X10512900Y-12830500D02*
X10552900Y-12870500D01*
X10552900Y-12830500D02*
X10512900Y-12870500D01*
X10633200Y-12994500D02*
X10673200Y-13034500D01*
X10673200Y-12994500D02*
X10633200Y-13034500D01*
X10775000Y-13122700D02*
X10815000Y-13162700D01*
X10815000Y-13122700D02*
X10775000Y-13162700D01*
X11473200Y-12970000D02*
X11513200Y-13010000D01*
X11513200Y-12970000D02*
X11473200Y-13010000D01*
X11626400Y-12890500D02*
X11666400Y-12930500D01*
X11666400Y-12890500D02*
X11626400Y-12930500D01*
X11664000Y-8552500D02*
X11704000Y-8592500D01*
X11704000Y-8552500D02*
X11664000Y-8592500D01*
X11664000Y-10076500D02*
X11704000Y-10116500D01*
X11704000Y-10076500D02*
X11664000Y-10116500D01*
X11791000Y-13249700D02*
X11831000Y-13289700D01*
X11831000Y-13249700D02*
X11791000Y-13289700D01*
X11918000Y-8552500D02*
X11958000Y-8592500D01*
X11958000Y-8552500D02*
X11918000Y-8592500D01*
X11918000Y-10076500D02*
X11958000Y-10116500D01*
X11958000Y-10076500D02*
X11918000Y-10116500D01*
X12172000Y-8552500D02*
X12212000Y-8592500D01*
X12212000Y-8552500D02*
X12172000Y-8592500D01*
X12247500Y-12845900D02*
X12287500Y-12885900D01*
X12287500Y-12845900D02*
X12247500Y-12885900D01*
X12426000Y-8552500D02*
X12466000Y-8592500D01*
X12466000Y-8552500D02*
X12426000Y-8592500D01*
X12680000Y-10076500D02*
X12720000Y-10116500D01*
X12720000Y-10076500D02*
X12680000Y-10116500D01*
X12803700Y-13252900D02*
X12843700Y-13292900D01*
X12843700Y-13252900D02*
X12803700Y-13292900D01*
X12934000Y-10076500D02*
X12974000Y-10116500D01*
X12974000Y-10076500D02*
X12934000Y-10116500D01*
X12934000Y-12528000D02*
X12974000Y-12568000D01*
X12974000Y-12528000D02*
X12934000Y-12568000D01*
X13540600Y-11739300D02*
X13580600Y-11779300D01*
X13580600Y-11739300D02*
X13540600Y-11779300D01*
X13812400Y-11694300D02*
X13852400Y-11734300D01*
X13852400Y-11694300D02*
X13812400Y-11734300D01*
X13950000Y-12305200D02*
X13990000Y-12345200D01*
X13990000Y-12305200D02*
X13950000Y-12345200D01*
X13980900Y-9824140D02*
X14020900Y-9864140D01*
X14020900Y-9824140D02*
X13980900Y-9864140D01*
X14271300Y-11685100D02*
X14311300Y-11725100D01*
X14311300Y-11685100D02*
X14271300Y-11725100D01*
D12*
X5882000Y-11057000D02*
G75*
G03*
X5882000Y-11057000I-40000J0D01*
G01*
X5882000Y-11557000D02*
G75*
G03*
X5882000Y-11557000I-40000J0D01*
G01*
X6390500Y-10922000D02*
G75*
G03*
X6390500Y-10922000I-40000J0D01*
G01*
X6390500Y-11684000D02*
G75*
G03*
X6390500Y-11684000I-40000J0D01*
G01*
X6644500Y-10922000D02*
G75*
G03*
X6644500Y-10922000I-40000J0D01*
G01*
X6644500Y-11684000D02*
G75*
G03*
X6644500Y-11684000I-40000J0D01*
G01*
X6898000Y-8128000D02*
G75*
G03*
X6898000Y-8128000I-40000J0D01*
G01*
X6898000Y-10414000D02*
G75*
G03*
X6898000Y-10414000I-40000J0D01*
G01*
X6898500Y-10922000D02*
G75*
G03*
X6898500Y-10922000I-40000J0D01*
G01*
X6898500Y-11684000D02*
G75*
G03*
X6898500Y-11684000I-40000J0D01*
G01*
X7152000Y-8128000D02*
G75*
G03*
X7152000Y-8128000I-40000J0D01*
G01*
X7152000Y-10414000D02*
G75*
G03*
X7152000Y-10414000I-40000J0D01*
G01*
X7152500Y-10922000D02*
G75*
G03*
X7152500Y-10922000I-40000J0D01*
G01*
X7152500Y-11684000D02*
G75*
G03*
X7152500Y-11684000I-40000J0D01*
G01*
X7406000Y-8128000D02*
G75*
G03*
X7406000Y-8128000I-40000J0D01*
G01*
X7406000Y-10414000D02*
G75*
G03*
X7406000Y-10414000I-40000J0D01*
G01*
X7406500Y-10922000D02*
G75*
G03*
X7406500Y-10922000I-40000J0D01*
G01*
X7406500Y-11684000D02*
G75*
G03*
X7406500Y-11684000I-40000J0D01*
G01*
X7660000Y-8128000D02*
G75*
G03*
X7660000Y-8128000I-40000J0D01*
G01*
X7660000Y-10414000D02*
G75*
G03*
X7660000Y-10414000I-40000J0D01*
G01*
X7660500Y-10922000D02*
G75*
G03*
X7660500Y-10922000I-40000J0D01*
G01*
X7660500Y-11684000D02*
G75*
G03*
X7660500Y-11684000I-40000J0D01*
G01*
X7914000Y-8128000D02*
G75*
G03*
X7914000Y-8128000I-40000J0D01*
G01*
X7914000Y-10414000D02*
G75*
G03*
X7914000Y-10414000I-40000J0D01*
G01*
X7914500Y-10922000D02*
G75*
G03*
X7914500Y-10922000I-40000J0D01*
G01*
X7914500Y-11684000D02*
G75*
G03*
X7914500Y-11684000I-40000J0D01*
G01*
X8168000Y-8128000D02*
G75*
G03*
X8168000Y-8128000I-40000J0D01*
G01*
X8168000Y-10414000D02*
G75*
G03*
X8168000Y-10414000I-40000J0D01*
G01*
X8168500Y-10922000D02*
G75*
G03*
X8168500Y-10922000I-40000J0D01*
G01*
X8168500Y-11684000D02*
G75*
G03*
X8168500Y-11684000I-40000J0D01*
G01*
X8422000Y-8128000D02*
G75*
G03*
X8422000Y-8128000I-40000J0D01*
G01*
X8422000Y-10414000D02*
G75*
G03*
X8422000Y-10414000I-40000J0D01*
G01*
X8422500Y-10922000D02*
G75*
G03*
X8422500Y-10922000I-40000J0D01*
G01*
X8422500Y-11684000D02*
G75*
G03*
X8422500Y-11684000I-40000J0D01*
G01*
X8676000Y-8128000D02*
G75*
G03*
X8676000Y-8128000I-40000J0D01*
G01*
X8676000Y-10414000D02*
G75*
G03*
X8676000Y-10414000I-40000J0D01*
G01*
X8676500Y-10922000D02*
G75*
G03*
X8676500Y-10922000I-40000J0D01*
G01*
X8676500Y-11684000D02*
G75*
G03*
X8676500Y-11684000I-40000J0D01*
G01*
X8930000Y-8128000D02*
G75*
G03*
X8930000Y-8128000I-40000J0D01*
G01*
X8930000Y-10414000D02*
G75*
G03*
X8930000Y-10414000I-40000J0D01*
G01*
X9184000Y-8128000D02*
G75*
G03*
X9184000Y-8128000I-40000J0D01*
G01*
X9184000Y-10414000D02*
G75*
G03*
X9184000Y-10414000I-40000J0D01*
G01*
X9311000Y-11303000D02*
G75*
G03*
X9311000Y-11303000I-40000J0D01*
G01*
X9311000Y-12065000D02*
G75*
G03*
X9311000Y-12065000I-40000J0D01*
G01*
X9438000Y-8128000D02*
G75*
G03*
X9438000Y-8128000I-40000J0D01*
G01*
X9438000Y-10414000D02*
G75*
G03*
X9438000Y-10414000I-40000J0D01*
G01*
X9565000Y-10922000D02*
G75*
G03*
X9565000Y-10922000I-40000J0D01*
G01*
X9692000Y-8128000D02*
G75*
G03*
X9692000Y-8128000I-40000J0D01*
G01*
X9692000Y-10414000D02*
G75*
G03*
X9692000Y-10414000I-40000J0D01*
G01*
X9819000Y-11303000D02*
G75*
G03*
X9819000Y-11303000I-40000J0D01*
G01*
X9819000Y-12065000D02*
G75*
G03*
X9819000Y-12065000I-40000J0D01*
G01*
X9946000Y-8128000D02*
G75*
G03*
X9946000Y-8128000I-40000J0D01*
G01*
X9946000Y-10414000D02*
G75*
G03*
X9946000Y-10414000I-40000J0D01*
G01*
X10065000Y-10922000D02*
G75*
G03*
X10065000Y-10922000I-40000J0D01*
G01*
X10073000Y-11303000D02*
G75*
G03*
X10073000Y-11303000I-40000J0D01*
G01*
X10073000Y-12065000D02*
G75*
G03*
X10073000Y-12065000I-40000J0D01*
G01*
X10200000Y-8128000D02*
G75*
G03*
X10200000Y-8128000I-40000J0D01*
G01*
X10200000Y-10414000D02*
G75*
G03*
X10200000Y-10414000I-40000J0D01*
G01*
X10327000Y-11303000D02*
G75*
G03*
X10327000Y-11303000I-40000J0D01*
G01*
X10327000Y-12065000D02*
G75*
G03*
X10327000Y-12065000I-40000J0D01*
G01*
X10454000Y-8128000D02*
G75*
G03*
X10454000Y-8128000I-40000J0D01*
G01*
X10454000Y-10414000D02*
G75*
G03*
X10454000Y-10414000I-40000J0D01*
G01*
X10581000Y-11303000D02*
G75*
G03*
X10581000Y-11303000I-40000J0D01*
G01*
X10581000Y-12065000D02*
G75*
G03*
X10581000Y-12065000I-40000J0D01*
G01*
X10708000Y-8128000D02*
G75*
G03*
X10708000Y-8128000I-40000J0D01*
G01*
X10708000Y-10414000D02*
G75*
G03*
X10708000Y-10414000I-40000J0D01*
G01*
X10835000Y-11303000D02*
G75*
G03*
X10835000Y-11303000I-40000J0D01*
G01*
X10835000Y-12065000D02*
G75*
G03*
X10835000Y-12065000I-40000J0D01*
G01*
X10962000Y-8128000D02*
G75*
G03*
X10962000Y-8128000I-40000J0D01*
G01*
X10962000Y-10414000D02*
G75*
G03*
X10962000Y-10414000I-40000J0D01*
G01*
X11089000Y-11303000D02*
G75*
G03*
X11089000Y-11303000I-40000J0D01*
G01*
X11089000Y-12065000D02*
G75*
G03*
X11089000Y-12065000I-40000J0D01*
G01*
X11216000Y-8128000D02*
G75*
G03*
X11216000Y-8128000I-40000J0D01*
G01*
X11216000Y-10414000D02*
G75*
G03*
X11216000Y-10414000I-40000J0D01*
G01*
X11343000Y-11303000D02*
G75*
G03*
X11343000Y-11303000I-40000J0D01*
G01*
X11343000Y-12065000D02*
G75*
G03*
X11343000Y-12065000I-40000J0D01*
G01*
X11470000Y-8128000D02*
G75*
G03*
X11470000Y-8128000I-40000J0D01*
G01*
X11470000Y-10414000D02*
G75*
G03*
X11470000Y-10414000I-40000J0D01*
G01*
X11597000Y-11303000D02*
G75*
G03*
X11597000Y-11303000I-40000J0D01*
G01*
X11597000Y-12065000D02*
G75*
G03*
X11597000Y-12065000I-40000J0D01*
G01*
X11724000Y-8128000D02*
G75*
G03*
X11724000Y-8128000I-40000J0D01*
G01*
X11724000Y-10414000D02*
G75*
G03*
X11724000Y-10414000I-40000J0D01*
G01*
X11851000Y-11303000D02*
G75*
G03*
X11851000Y-11303000I-40000J0D01*
G01*
X11851000Y-12065000D02*
G75*
G03*
X11851000Y-12065000I-40000J0D01*
G01*
X11978000Y-8128000D02*
G75*
G03*
X11978000Y-8128000I-40000J0D01*
G01*
X11978000Y-10414000D02*
G75*
G03*
X11978000Y-10414000I-40000J0D01*
G01*
X12105000Y-11303000D02*
G75*
G03*
X12105000Y-11303000I-40000J0D01*
G01*
X12105000Y-12065000D02*
G75*
G03*
X12105000Y-12065000I-40000J0D01*
G01*
X12232000Y-8128000D02*
G75*
G03*
X12232000Y-8128000I-40000J0D01*
G01*
X12232000Y-10414000D02*
G75*
G03*
X12232000Y-10414000I-40000J0D01*
G01*
X12486000Y-8128000D02*
G75*
G03*
X12486000Y-8128000I-40000J0D01*
G01*
X12486000Y-10414000D02*
G75*
G03*
X12486000Y-10414000I-40000J0D01*
G01*
X12740000Y-8128000D02*
G75*
G03*
X12740000Y-8128000I-40000J0D01*
G01*
X12740000Y-10414000D02*
G75*
G03*
X12740000Y-10414000I-40000J0D01*
G01*
X12867000Y-10795000D02*
G75*
G03*
X12867000Y-10795000I-40000J0D01*
G01*
X12994000Y-11176000D02*
G75*
G03*
X12994000Y-11176000I-40000J0D01*
G01*
X12994000Y-11938000D02*
G75*
G03*
X12994000Y-11938000I-40000J0D01*
G01*
X13248000Y-11176000D02*
G75*
G03*
X13248000Y-11176000I-40000J0D01*
G01*
X13248000Y-11938000D02*
G75*
G03*
X13248000Y-11938000I-40000J0D01*
G01*
X13367000Y-10795000D02*
G75*
G03*
X13367000Y-10795000I-40000J0D01*
G01*
X13502000Y-11176000D02*
G75*
G03*
X13502000Y-11176000I-40000J0D01*
G01*
X13502000Y-11938000D02*
G75*
G03*
X13502000Y-11938000I-40000J0D01*
G01*
X13756000Y-11176000D02*
G75*
G03*
X13756000Y-11176000I-40000J0D01*
G01*
X13756000Y-11938000D02*
G75*
G03*
X13756000Y-11938000I-40000J0D01*
G01*
X14010000Y-11176000D02*
G75*
G03*
X14010000Y-11176000I-40000J0D01*
G01*
X14010000Y-11938000D02*
G75*
G03*
X14010000Y-11938000I-40000J0D01*
G01*
X14200500Y-8068500D02*
G75*
G03*
X14200500Y-8068500I-40000J0D01*
G01*
X14200500Y-8568500D02*
G75*
G03*
X14200500Y-8568500I-40000J0D01*
G01*
X14264000Y-10168000D02*
G75*
G03*
X14264000Y-10168000I-40000J0D01*
G01*
X14264000Y-10668000D02*
G75*
G03*
X14264000Y-10668000I-40000J0D01*
G01*
X14264000Y-11176000D02*
G75*
G03*
X14264000Y-11176000I-40000J0D01*
G01*
X14264000Y-11938000D02*
G75*
G03*
X14264000Y-11938000I-40000J0D01*
G01*
X14518000Y-11176000D02*
G75*
G03*
X14518000Y-11176000I-40000J0D01*
G01*
X14518000Y-11938000D02*
G75*
G03*
X14518000Y-11938000I-40000J0D01*
G01*
X14644000Y-8191000D02*
G75*
G03*
X14644000Y-8191000I-40000J0D01*
G01*
X14644000Y-8445000D02*
G75*
G03*
X14644000Y-8445000I-40000J0D01*
G01*
X14644000Y-8699000D02*
G75*
G03*
X14644000Y-8699000I-40000J0D01*
G01*
X14644000Y-8953000D02*
G75*
G03*
X14644000Y-8953000I-40000J0D01*
G01*
X14644000Y-9207000D02*
G75*
G03*
X14644000Y-9207000I-40000J0D01*
G01*
X14644000Y-9461000D02*
G75*
G03*
X14644000Y-9461000I-40000J0D01*
G01*
X14644000Y-9715000D02*
G75*
G03*
X14644000Y-9715000I-40000J0D01*
G01*
X14644000Y-9969000D02*
G75*
G03*
X14644000Y-9969000I-40000J0D01*
G01*
X14644000Y-10223000D02*
G75*
G03*
X14644000Y-10223000I-40000J0D01*
G01*
X14644000Y-10477000D02*
G75*
G03*
X14644000Y-10477000I-40000J0D01*
G01*
X14772000Y-11176000D02*
G75*
G03*
X14772000Y-11176000I-40000J0D01*
G01*
X14772000Y-11938000D02*
G75*
G03*
X14772000Y-11938000I-40000J0D01*
G01*
X15026000Y-11176000D02*
G75*
G03*
X15026000Y-11176000I-40000J0D01*
G01*
X15026000Y-11938000D02*
G75*
G03*
X15026000Y-11938000I-40000J0D01*
G01*
X15280000Y-11176000D02*
G75*
G03*
X15280000Y-11176000I-40000J0D01*
G01*
X15280000Y-11938000D02*
G75*
G03*
X15280000Y-11938000I-40000J0D01*
G01*
X15406000Y-8191000D02*
G75*
G03*
X15406000Y-8191000I-40000J0D01*
G01*
X15406000Y-8445000D02*
G75*
G03*
X15406000Y-8445000I-40000J0D01*
G01*
X15406000Y-8699000D02*
G75*
G03*
X15406000Y-8699000I-40000J0D01*
G01*
X15406000Y-8953000D02*
G75*
G03*
X15406000Y-8953000I-40000J0D01*
G01*
X15406000Y-9207000D02*
G75*
G03*
X15406000Y-9207000I-40000J0D01*
G01*
X15406000Y-9461000D02*
G75*
G03*
X15406000Y-9461000I-40000J0D01*
G01*
X15406000Y-9715000D02*
G75*
G03*
X15406000Y-9715000I-40000J0D01*
G01*
X15406000Y-9969000D02*
G75*
G03*
X15406000Y-9969000I-40000J0D01*
G01*
X15406000Y-10223000D02*
G75*
G03*
X15406000Y-10223000I-40000J0D01*
G01*
X15406000Y-10477000D02*
G75*
G03*
X15406000Y-10477000I-40000J0D01*
G01*
D10*
X5896419Y-14674176D02*
X5896419Y-14474176D01*
X5944038Y-14474176D01*
X5972609Y-14483700D01*
X5991657Y-14502748D01*
X6001181Y-14521795D01*
X6010705Y-14559890D01*
X6010705Y-14588462D01*
X6001181Y-14626557D01*
X5991657Y-14645605D01*
X5972609Y-14664652D01*
X5944038Y-14674176D01*
X5896419Y-14674176D01*
X6096419Y-14674176D02*
X6096419Y-14540843D01*
X6096419Y-14578938D02*
X6105943Y-14559890D01*
X6115467Y-14550367D01*
X6134514Y-14540843D01*
X6153562Y-14540843D01*
X6220228Y-14674176D02*
X6220228Y-14540843D01*
X6220228Y-14474176D02*
X6210705Y-14483700D01*
X6220228Y-14493224D01*
X6229752Y-14483700D01*
X6220228Y-14474176D01*
X6220228Y-14493224D01*
X6344038Y-14674176D02*
X6324990Y-14664652D01*
X6315467Y-14645605D01*
X6315467Y-14474176D01*
X6448800Y-14674176D02*
X6429752Y-14664652D01*
X6420228Y-14645605D01*
X6420228Y-14474176D01*
X6677371Y-14674176D02*
X6677371Y-14474176D01*
X6744038Y-14617033D01*
X6810705Y-14474176D01*
X6810705Y-14674176D01*
X6991657Y-14674176D02*
X6991657Y-14569414D01*
X6982133Y-14550367D01*
X6963086Y-14540843D01*
X6924990Y-14540843D01*
X6905943Y-14550367D01*
X6991657Y-14664652D02*
X6972609Y-14674176D01*
X6924990Y-14674176D01*
X6905943Y-14664652D01*
X6896419Y-14645605D01*
X6896419Y-14626557D01*
X6905943Y-14607509D01*
X6924990Y-14597986D01*
X6972609Y-14597986D01*
X6991657Y-14588462D01*
X7086895Y-14540843D02*
X7086895Y-14740843D01*
X7086895Y-14550367D02*
X7105943Y-14540843D01*
X7144038Y-14540843D01*
X7163086Y-14550367D01*
X7172609Y-14559890D01*
X7182133Y-14578938D01*
X7182133Y-14636081D01*
X7172609Y-14655128D01*
X7163086Y-14664652D01*
X7144038Y-14674176D01*
X7105943Y-14674176D01*
X7086895Y-14664652D01*
X7267848Y-14655128D02*
X7277371Y-14664652D01*
X7267848Y-14674176D01*
X7258324Y-14664652D01*
X7267848Y-14655128D01*
X7267848Y-14674176D01*
X7267848Y-14550367D02*
X7277371Y-14559890D01*
X7267848Y-14569414D01*
X7258324Y-14559890D01*
X7267848Y-14550367D01*
X7267848Y-14569414D01*
D11*
X5598800Y-14983700D02*
X5638800Y-15023700D01*
X5638800Y-14983700D02*
X5598800Y-15023700D01*
D10*
X5934514Y-14894176D02*
X5953562Y-14894176D01*
X5972609Y-14903700D01*
X5982133Y-14913224D01*
X5991657Y-14932271D01*
X6001181Y-14970367D01*
X6001181Y-15017986D01*
X5991657Y-15056081D01*
X5982133Y-15075128D01*
X5972609Y-15084652D01*
X5953562Y-15094176D01*
X5934514Y-15094176D01*
X5915467Y-15084652D01*
X5905943Y-15075128D01*
X5896419Y-15056081D01*
X5886895Y-15017986D01*
X5886895Y-14970367D01*
X5896419Y-14932271D01*
X5905943Y-14913224D01*
X5915467Y-14903700D01*
X5934514Y-14894176D01*
X6086895Y-15075128D02*
X6096419Y-15084652D01*
X6086895Y-15094176D01*
X6077371Y-15084652D01*
X6086895Y-15075128D01*
X6086895Y-15094176D01*
X6267848Y-14960843D02*
X6267848Y-15094176D01*
X6220228Y-14884652D02*
X6172609Y-15027509D01*
X6296419Y-15027509D01*
X6410705Y-14894176D02*
X6429752Y-14894176D01*
X6448800Y-14903700D01*
X6458324Y-14913224D01*
X6467848Y-14932271D01*
X6477371Y-14970367D01*
X6477371Y-15017986D01*
X6467848Y-15056081D01*
X6458324Y-15075128D01*
X6448800Y-15084652D01*
X6429752Y-15094176D01*
X6410705Y-15094176D01*
X6391657Y-15084652D01*
X6382133Y-15075128D01*
X6372609Y-15056081D01*
X6363086Y-15017986D01*
X6363086Y-14970367D01*
X6372609Y-14932271D01*
X6382133Y-14913224D01*
X6391657Y-14903700D01*
X6410705Y-14894176D01*
X6601181Y-14894176D02*
X6620228Y-14894176D01*
X6639276Y-14903700D01*
X6648800Y-14913224D01*
X6658324Y-14932271D01*
X6667848Y-14970367D01*
X6667848Y-15017986D01*
X6658324Y-15056081D01*
X6648800Y-15075128D01*
X6639276Y-15084652D01*
X6620228Y-15094176D01*
X6601181Y-15094176D01*
X6582133Y-15084652D01*
X6572609Y-15075128D01*
X6563086Y-15056081D01*
X6553562Y-15017986D01*
X6553562Y-14970367D01*
X6563086Y-14932271D01*
X6572609Y-14913224D01*
X6582133Y-14903700D01*
X6601181Y-14894176D01*
X6753562Y-15094176D02*
X6753562Y-14960843D01*
X6753562Y-14979890D02*
X6763086Y-14970367D01*
X6782133Y-14960843D01*
X6810705Y-14960843D01*
X6829752Y-14970367D01*
X6839276Y-14989414D01*
X6839276Y-15094176D01*
X6839276Y-14989414D02*
X6848800Y-14970367D01*
X6867848Y-14960843D01*
X6896419Y-14960843D01*
X6915467Y-14970367D01*
X6924990Y-14989414D01*
X6924990Y-15094176D01*
X7020228Y-15094176D02*
X7020228Y-14960843D01*
X7020228Y-14979890D02*
X7029752Y-14970367D01*
X7048800Y-14960843D01*
X7077371Y-14960843D01*
X7096419Y-14970367D01*
X7105943Y-14989414D01*
X7105943Y-15094176D01*
X7105943Y-14989414D02*
X7115467Y-14970367D01*
X7134514Y-14960843D01*
X7163086Y-14960843D01*
X7182133Y-14970367D01*
X7191657Y-14989414D01*
X7191657Y-15094176D01*
X7582133Y-14884652D02*
X7410705Y-15141795D01*
X7839276Y-14894176D02*
X7858324Y-14894176D01*
X7877371Y-14903700D01*
X7886895Y-14913224D01*
X7896419Y-14932271D01*
X7905943Y-14970367D01*
X7905943Y-15017986D01*
X7896419Y-15056081D01*
X7886895Y-15075128D01*
X7877371Y-15084652D01*
X7858324Y-15094176D01*
X7839276Y-15094176D01*
X7820228Y-15084652D01*
X7810705Y-15075128D01*
X7801181Y-15056081D01*
X7791657Y-15017986D01*
X7791657Y-14970367D01*
X7801181Y-14932271D01*
X7810705Y-14913224D01*
X7820228Y-14903700D01*
X7839276Y-14894176D01*
X7991657Y-15075128D02*
X8001181Y-15084652D01*
X7991657Y-15094176D01*
X7982133Y-15084652D01*
X7991657Y-15075128D01*
X7991657Y-15094176D01*
X8124990Y-14894176D02*
X8144038Y-14894176D01*
X8163086Y-14903700D01*
X8172609Y-14913224D01*
X8182133Y-14932271D01*
X8191657Y-14970367D01*
X8191657Y-15017986D01*
X8182133Y-15056081D01*
X8172609Y-15075128D01*
X8163086Y-15084652D01*
X8144038Y-15094176D01*
X8124990Y-15094176D01*
X8105943Y-15084652D01*
X8096419Y-15075128D01*
X8086895Y-15056081D01*
X8077371Y-15017986D01*
X8077371Y-14970367D01*
X8086895Y-14932271D01*
X8096419Y-14913224D01*
X8105943Y-14903700D01*
X8124990Y-14894176D01*
X8382133Y-15094176D02*
X8267848Y-15094176D01*
X8324990Y-15094176D02*
X8324990Y-14894176D01*
X8305943Y-14922748D01*
X8286895Y-14941795D01*
X8267848Y-14951319D01*
X8563086Y-14894176D02*
X8467848Y-14894176D01*
X8458324Y-14989414D01*
X8467848Y-14979890D01*
X8486895Y-14970367D01*
X8534514Y-14970367D01*
X8553562Y-14979890D01*
X8563086Y-14989414D01*
X8572610Y-15008462D01*
X8572610Y-15056081D01*
X8563086Y-15075128D01*
X8553562Y-15084652D01*
X8534514Y-15094176D01*
X8486895Y-15094176D01*
X8467848Y-15084652D01*
X8458324Y-15075128D01*
X8639276Y-14894176D02*
X8772610Y-14894176D01*
X8686895Y-15094176D01*
X8839276Y-14894176D02*
X8839276Y-14932271D01*
X8915467Y-14894176D02*
X8915467Y-14932271D01*
X9210705Y-15170367D02*
X9201181Y-15160843D01*
X9182133Y-15132271D01*
X9172610Y-15113224D01*
X9163086Y-15084652D01*
X9153562Y-15037033D01*
X9153562Y-14998938D01*
X9163086Y-14951319D01*
X9172610Y-14922748D01*
X9182133Y-14903700D01*
X9201181Y-14875128D01*
X9210705Y-14865605D01*
X9267848Y-14894176D02*
X9391657Y-14894176D01*
X9324990Y-14970367D01*
X9353562Y-14970367D01*
X9372610Y-14979890D01*
X9382133Y-14989414D01*
X9391657Y-15008462D01*
X9391657Y-15056081D01*
X9382133Y-15075128D01*
X9372610Y-15084652D01*
X9353562Y-15094176D01*
X9296419Y-15094176D01*
X9277371Y-15084652D01*
X9267848Y-15075128D01*
X9486895Y-15094176D02*
X9524990Y-15094176D01*
X9544038Y-15084652D01*
X9553562Y-15075128D01*
X9572610Y-15046557D01*
X9582133Y-15008462D01*
X9582133Y-14932271D01*
X9572610Y-14913224D01*
X9563086Y-14903700D01*
X9544038Y-14894176D01*
X9505943Y-14894176D01*
X9486895Y-14903700D01*
X9477371Y-14913224D01*
X9467848Y-14932271D01*
X9467848Y-14979890D01*
X9477371Y-14998938D01*
X9486895Y-15008462D01*
X9505943Y-15017986D01*
X9544038Y-15017986D01*
X9563086Y-15008462D01*
X9572610Y-14998938D01*
X9582133Y-14979890D01*
X9820229Y-15094176D02*
X9820229Y-14894176D01*
X9905943Y-15094176D02*
X9905943Y-14989414D01*
X9896419Y-14970367D01*
X9877371Y-14960843D01*
X9848800Y-14960843D01*
X9829752Y-14970367D01*
X9820229Y-14979890D01*
X10029752Y-15094176D02*
X10010705Y-15084652D01*
X10001181Y-15075128D01*
X9991657Y-15056081D01*
X9991657Y-14998938D01*
X10001181Y-14979890D01*
X10010705Y-14970367D01*
X10029752Y-14960843D01*
X10058324Y-14960843D01*
X10077371Y-14970367D01*
X10086895Y-14979890D01*
X10096419Y-14998938D01*
X10096419Y-15056081D01*
X10086895Y-15075128D01*
X10077371Y-15084652D01*
X10058324Y-15094176D01*
X10029752Y-15094176D01*
X10210705Y-15094176D02*
X10191657Y-15084652D01*
X10182133Y-15065605D01*
X10182133Y-14894176D01*
X10363086Y-15084652D02*
X10344038Y-15094176D01*
X10305943Y-15094176D01*
X10286895Y-15084652D01*
X10277371Y-15065605D01*
X10277371Y-14989414D01*
X10286895Y-14970367D01*
X10305943Y-14960843D01*
X10344038Y-14960843D01*
X10363086Y-14970367D01*
X10372610Y-14989414D01*
X10372610Y-15008462D01*
X10277371Y-15027509D01*
X10448800Y-15084652D02*
X10467848Y-15094176D01*
X10505943Y-15094176D01*
X10524990Y-15084652D01*
X10534514Y-15065605D01*
X10534514Y-15056081D01*
X10524990Y-15037033D01*
X10505943Y-15027509D01*
X10477371Y-15027509D01*
X10458324Y-15017986D01*
X10448800Y-14998938D01*
X10448800Y-14989414D01*
X10458324Y-14970367D01*
X10477371Y-14960843D01*
X10505943Y-14960843D01*
X10524990Y-14970367D01*
X10601181Y-15170367D02*
X10610705Y-15160843D01*
X10629752Y-15132271D01*
X10639276Y-15113224D01*
X10648800Y-15084652D01*
X10658324Y-15037033D01*
X10658324Y-14998938D01*
X10648800Y-14951319D01*
X10639276Y-14922748D01*
X10629752Y-14903700D01*
X10610705Y-14875128D01*
X10601181Y-14865605D01*
D12*
X5638800Y-15267700D02*
G75*
G03*
X5638800Y-15267700I-40000J0D01*
G01*
D10*
X5934514Y-15158176D02*
X5953562Y-15158176D01*
X5972609Y-15167700D01*
X5982133Y-15177224D01*
X5991657Y-15196271D01*
X6001181Y-15234367D01*
X6001181Y-15281986D01*
X5991657Y-15320081D01*
X5982133Y-15339128D01*
X5972609Y-15348652D01*
X5953562Y-15358176D01*
X5934514Y-15358176D01*
X5915467Y-15348652D01*
X5905943Y-15339128D01*
X5896419Y-15320081D01*
X5886895Y-15281986D01*
X5886895Y-15234367D01*
X5896419Y-15196271D01*
X5905943Y-15177224D01*
X5915467Y-15167700D01*
X5934514Y-15158176D01*
X6086895Y-15339128D02*
X6096419Y-15348652D01*
X6086895Y-15358176D01*
X6077371Y-15348652D01*
X6086895Y-15339128D01*
X6086895Y-15358176D01*
X6210705Y-15243890D02*
X6191657Y-15234367D01*
X6182133Y-15224843D01*
X6172609Y-15205795D01*
X6172609Y-15196271D01*
X6182133Y-15177224D01*
X6191657Y-15167700D01*
X6210705Y-15158176D01*
X6248800Y-15158176D01*
X6267848Y-15167700D01*
X6277371Y-15177224D01*
X6286895Y-15196271D01*
X6286895Y-15205795D01*
X6277371Y-15224843D01*
X6267848Y-15234367D01*
X6248800Y-15243890D01*
X6210705Y-15243890D01*
X6191657Y-15253414D01*
X6182133Y-15262938D01*
X6172609Y-15281986D01*
X6172609Y-15320081D01*
X6182133Y-15339128D01*
X6191657Y-15348652D01*
X6210705Y-15358176D01*
X6248800Y-15358176D01*
X6267848Y-15348652D01*
X6277371Y-15339128D01*
X6286895Y-15320081D01*
X6286895Y-15281986D01*
X6277371Y-15262938D01*
X6267848Y-15253414D01*
X6248800Y-15243890D01*
X6410705Y-15158176D02*
X6429752Y-15158176D01*
X6448800Y-15167700D01*
X6458324Y-15177224D01*
X6467848Y-15196271D01*
X6477371Y-15234367D01*
X6477371Y-15281986D01*
X6467848Y-15320081D01*
X6458324Y-15339128D01*
X6448800Y-15348652D01*
X6429752Y-15358176D01*
X6410705Y-15358176D01*
X6391657Y-15348652D01*
X6382133Y-15339128D01*
X6372609Y-15320081D01*
X6363086Y-15281986D01*
X6363086Y-15234367D01*
X6372609Y-15196271D01*
X6382133Y-15177224D01*
X6391657Y-15167700D01*
X6410705Y-15158176D01*
X6601181Y-15158176D02*
X6620228Y-15158176D01*
X6639276Y-15167700D01*
X6648800Y-15177224D01*
X6658324Y-15196271D01*
X6667848Y-15234367D01*
X6667848Y-15281986D01*
X6658324Y-15320081D01*
X6648800Y-15339128D01*
X6639276Y-15348652D01*
X6620228Y-15358176D01*
X6601181Y-15358176D01*
X6582133Y-15348652D01*
X6572609Y-15339128D01*
X6563086Y-15320081D01*
X6553562Y-15281986D01*
X6553562Y-15234367D01*
X6563086Y-15196271D01*
X6572609Y-15177224D01*
X6582133Y-15167700D01*
X6601181Y-15158176D01*
X6753562Y-15358176D02*
X6753562Y-15224843D01*
X6753562Y-15243890D02*
X6763086Y-15234367D01*
X6782133Y-15224843D01*
X6810705Y-15224843D01*
X6829752Y-15234367D01*
X6839276Y-15253414D01*
X6839276Y-15358176D01*
X6839276Y-15253414D02*
X6848800Y-15234367D01*
X6867848Y-15224843D01*
X6896419Y-15224843D01*
X6915467Y-15234367D01*
X6924990Y-15253414D01*
X6924990Y-15358176D01*
X7020228Y-15358176D02*
X7020228Y-15224843D01*
X7020228Y-15243890D02*
X7029752Y-15234367D01*
X7048800Y-15224843D01*
X7077371Y-15224843D01*
X7096419Y-15234367D01*
X7105943Y-15253414D01*
X7105943Y-15358176D01*
X7105943Y-15253414D02*
X7115467Y-15234367D01*
X7134514Y-15224843D01*
X7163086Y-15224843D01*
X7182133Y-15234367D01*
X7191657Y-15253414D01*
X7191657Y-15358176D01*
X7582133Y-15148652D02*
X7410705Y-15405795D01*
X7839276Y-15158176D02*
X7858324Y-15158176D01*
X7877371Y-15167700D01*
X7886895Y-15177224D01*
X7896419Y-15196271D01*
X7905943Y-15234367D01*
X7905943Y-15281986D01*
X7896419Y-15320081D01*
X7886895Y-15339128D01*
X7877371Y-15348652D01*
X7858324Y-15358176D01*
X7839276Y-15358176D01*
X7820228Y-15348652D01*
X7810705Y-15339128D01*
X7801181Y-15320081D01*
X7791657Y-15281986D01*
X7791657Y-15234367D01*
X7801181Y-15196271D01*
X7810705Y-15177224D01*
X7820228Y-15167700D01*
X7839276Y-15158176D01*
X7991657Y-15339128D02*
X8001181Y-15348652D01*
X7991657Y-15358176D01*
X7982133Y-15348652D01*
X7991657Y-15339128D01*
X7991657Y-15358176D01*
X8124990Y-15158176D02*
X8144038Y-15158176D01*
X8163086Y-15167700D01*
X8172609Y-15177224D01*
X8182133Y-15196271D01*
X8191657Y-15234367D01*
X8191657Y-15281986D01*
X8182133Y-15320081D01*
X8172609Y-15339128D01*
X8163086Y-15348652D01*
X8144038Y-15358176D01*
X8124990Y-15358176D01*
X8105943Y-15348652D01*
X8096419Y-15339128D01*
X8086895Y-15320081D01*
X8077371Y-15281986D01*
X8077371Y-15234367D01*
X8086895Y-15196271D01*
X8096419Y-15177224D01*
X8105943Y-15167700D01*
X8124990Y-15158176D01*
X8258324Y-15158176D02*
X8382133Y-15158176D01*
X8315467Y-15234367D01*
X8344038Y-15234367D01*
X8363086Y-15243890D01*
X8372609Y-15253414D01*
X8382133Y-15272462D01*
X8382133Y-15320081D01*
X8372609Y-15339128D01*
X8363086Y-15348652D01*
X8344038Y-15358176D01*
X8286895Y-15358176D01*
X8267848Y-15348652D01*
X8258324Y-15339128D01*
X8572610Y-15358176D02*
X8458324Y-15358176D01*
X8515467Y-15358176D02*
X8515467Y-15158176D01*
X8496419Y-15186748D01*
X8477371Y-15205795D01*
X8458324Y-15215319D01*
X8753562Y-15158176D02*
X8658324Y-15158176D01*
X8648800Y-15253414D01*
X8658324Y-15243890D01*
X8677371Y-15234367D01*
X8724990Y-15234367D01*
X8744038Y-15243890D01*
X8753562Y-15253414D01*
X8763086Y-15272462D01*
X8763086Y-15320081D01*
X8753562Y-15339128D01*
X8744038Y-15348652D01*
X8724990Y-15358176D01*
X8677371Y-15358176D01*
X8658324Y-15348652D01*
X8648800Y-15339128D01*
X8839276Y-15158176D02*
X8839276Y-15196271D01*
X8915467Y-15158176D02*
X8915467Y-15196271D01*
X9210705Y-15434367D02*
X9201181Y-15424843D01*
X9182133Y-15396271D01*
X9172610Y-15377224D01*
X9163086Y-15348652D01*
X9153562Y-15301033D01*
X9153562Y-15262938D01*
X9163086Y-15215319D01*
X9172610Y-15186748D01*
X9182133Y-15167700D01*
X9201181Y-15139128D01*
X9210705Y-15129605D01*
X9391657Y-15358176D02*
X9277371Y-15358176D01*
X9334514Y-15358176D02*
X9334514Y-15158176D01*
X9315467Y-15186748D01*
X9296419Y-15205795D01*
X9277371Y-15215319D01*
X9563086Y-15224843D02*
X9563086Y-15358176D01*
X9515467Y-15148652D02*
X9467848Y-15291509D01*
X9591657Y-15291509D01*
X9705943Y-15158176D02*
X9724990Y-15158176D01*
X9744038Y-15167700D01*
X9753562Y-15177224D01*
X9763086Y-15196271D01*
X9772610Y-15234367D01*
X9772610Y-15281986D01*
X9763086Y-15320081D01*
X9753562Y-15339128D01*
X9744038Y-15348652D01*
X9724990Y-15358176D01*
X9705943Y-15358176D01*
X9686895Y-15348652D01*
X9677371Y-15339128D01*
X9667848Y-15320081D01*
X9658324Y-15281986D01*
X9658324Y-15234367D01*
X9667848Y-15196271D01*
X9677371Y-15177224D01*
X9686895Y-15167700D01*
X9705943Y-15158176D01*
X10010705Y-15358176D02*
X10010705Y-15158176D01*
X10096419Y-15358176D02*
X10096419Y-15253414D01*
X10086895Y-15234367D01*
X10067848Y-15224843D01*
X10039276Y-15224843D01*
X10020229Y-15234367D01*
X10010705Y-15243890D01*
X10220229Y-15358176D02*
X10201181Y-15348652D01*
X10191657Y-15339128D01*
X10182133Y-15320081D01*
X10182133Y-15262938D01*
X10191657Y-15243890D01*
X10201181Y-15234367D01*
X10220229Y-15224843D01*
X10248800Y-15224843D01*
X10267848Y-15234367D01*
X10277371Y-15243890D01*
X10286895Y-15262938D01*
X10286895Y-15320081D01*
X10277371Y-15339128D01*
X10267848Y-15348652D01*
X10248800Y-15358176D01*
X10220229Y-15358176D01*
X10401181Y-15358176D02*
X10382133Y-15348652D01*
X10372610Y-15329605D01*
X10372610Y-15158176D01*
X10553562Y-15348652D02*
X10534514Y-15358176D01*
X10496419Y-15358176D01*
X10477371Y-15348652D01*
X10467848Y-15329605D01*
X10467848Y-15253414D01*
X10477371Y-15234367D01*
X10496419Y-15224843D01*
X10534514Y-15224843D01*
X10553562Y-15234367D01*
X10563086Y-15253414D01*
X10563086Y-15272462D01*
X10467848Y-15291509D01*
X10639276Y-15348652D02*
X10658324Y-15358176D01*
X10696419Y-15358176D01*
X10715467Y-15348652D01*
X10724990Y-15329605D01*
X10724990Y-15320081D01*
X10715467Y-15301033D01*
X10696419Y-15291509D01*
X10667848Y-15291509D01*
X10648800Y-15281986D01*
X10639276Y-15262938D01*
X10639276Y-15253414D01*
X10648800Y-15234367D01*
X10667848Y-15224843D01*
X10696419Y-15224843D01*
X10715467Y-15234367D01*
X10791657Y-15434367D02*
X10801181Y-15424843D01*
X10820229Y-15396271D01*
X10829752Y-15377224D01*
X10839276Y-15348652D01*
X10848800Y-15301033D01*
X10848800Y-15262938D01*
X10839276Y-15215319D01*
X10829752Y-15186748D01*
X10820229Y-15167700D01*
X10801181Y-15139128D01*
X10791657Y-15129605D01*
M02*
