G04 #@! TF.GenerationSoftware,KiCad,Pcbnew,(6.0.9)*
G04 #@! TF.CreationDate,2023-05-01T17:42:56+02:00*
G04 #@! TF.ProjectId,05_Cartucho_MSX_Tang_Nano_9k_Mapper,30355f43-6172-4747-9563-686f5f4d5358,rev?*
G04 #@! TF.SameCoordinates,Original*
G04 #@! TF.FileFunction,Legend,Bot*
G04 #@! TF.FilePolarity,Positive*
%FSLAX46Y46*%
G04 Gerber Fmt 4.6, Leading zero omitted, Abs format (unit mm)*
G04 Created by KiCad (PCBNEW (6.0.9)) date 2023-05-01 17:42:56*
%MOMM*%
%LPD*%
G01*
G04 APERTURE LIST*
%ADD10C,0.150000*%
%ADD11C,1.600000*%
%ADD12R,1.600000X2.400000*%
%ADD13O,1.600000X2.400000*%
%ADD14C,4.900000*%
%ADD15R,1.270000X7.620000*%
%ADD16O,1.600000X1.600000*%
%ADD17R,2.400000X1.600000*%
%ADD18O,2.400000X1.600000*%
G04 APERTURE END LIST*
D10*
X141954285Y-134437380D02*
X142525714Y-134437380D01*
X142240000Y-134437380D02*
X142240000Y-133437380D01*
X142335238Y-133580238D01*
X142430476Y-133675476D01*
X142525714Y-133723095D01*
X131627619Y-132379404D02*
X132627619Y-132379404D01*
X131913333Y-132046071D01*
X132627619Y-131712738D01*
X131627619Y-131712738D01*
X131627619Y-130712738D02*
X131627619Y-131284166D01*
X131627619Y-130998452D02*
X132627619Y-130998452D01*
X132484761Y-131093690D01*
X132389523Y-131188928D01*
X132341904Y-131284166D01*
X103973333Y-132427023D02*
X103973333Y-131950833D01*
X103687619Y-132522261D02*
X104687619Y-132188928D01*
X103687619Y-131855595D01*
X104687619Y-131046071D02*
X104687619Y-131522261D01*
X104211428Y-131569880D01*
X104259047Y-131522261D01*
X104306666Y-131427023D01*
X104306666Y-131188928D01*
X104259047Y-131093690D01*
X104211428Y-131046071D01*
X104116190Y-130998452D01*
X103878095Y-130998452D01*
X103782857Y-131046071D01*
X103735238Y-131093690D01*
X103687619Y-131188928D01*
X103687619Y-131427023D01*
X103735238Y-131522261D01*
X103782857Y-131569880D01*
X115061904Y-133532619D02*
X115014285Y-133485000D01*
X114919047Y-133437380D01*
X114680952Y-133437380D01*
X114585714Y-133485000D01*
X114538095Y-133532619D01*
X114490476Y-133627857D01*
X114490476Y-133723095D01*
X114538095Y-133865952D01*
X115109523Y-134437380D01*
X114490476Y-134437380D01*
X114157142Y-133437380D02*
X113538095Y-133437380D01*
X113871428Y-133818333D01*
X113728571Y-133818333D01*
X113633333Y-133865952D01*
X113585714Y-133913571D01*
X113538095Y-134008809D01*
X113538095Y-134246904D01*
X113585714Y-134342142D01*
X113633333Y-134389761D01*
X113728571Y-134437380D01*
X114014285Y-134437380D01*
X114109523Y-134389761D01*
X114157142Y-134342142D01*
X98607619Y-132379404D02*
X99607619Y-132379404D01*
X99607619Y-132141309D01*
X99560000Y-131998452D01*
X99464761Y-131903214D01*
X99369523Y-131855595D01*
X99179047Y-131807976D01*
X99036190Y-131807976D01*
X98845714Y-131855595D01*
X98750476Y-131903214D01*
X98655238Y-131998452D01*
X98607619Y-132141309D01*
X98607619Y-132379404D01*
X99607619Y-131474642D02*
X99607619Y-130855595D01*
X99226666Y-131188928D01*
X99226666Y-131046071D01*
X99179047Y-130950833D01*
X99131428Y-130903214D01*
X99036190Y-130855595D01*
X98798095Y-130855595D01*
X98702857Y-130903214D01*
X98655238Y-130950833D01*
X98607619Y-131046071D01*
X98607619Y-131331785D01*
X98655238Y-131427023D01*
X98702857Y-131474642D01*
X83748571Y-132379404D02*
X83748571Y-131617500D01*
X83367619Y-131998452D02*
X84129523Y-131998452D01*
X84367619Y-130665119D02*
X84367619Y-131141309D01*
X83891428Y-131188928D01*
X83939047Y-131141309D01*
X83986666Y-131046071D01*
X83986666Y-130807976D01*
X83939047Y-130712738D01*
X83891428Y-130665119D01*
X83796190Y-130617500D01*
X83558095Y-130617500D01*
X83462857Y-130665119D01*
X83415238Y-130712738D01*
X83367619Y-130807976D01*
X83367619Y-131046071D01*
X83415238Y-131141309D01*
X83462857Y-131188928D01*
X132270476Y-134437380D02*
X132080000Y-134437380D01*
X131984761Y-134389761D01*
X131937142Y-134342142D01*
X131841904Y-134199285D01*
X131794285Y-134008809D01*
X131794285Y-133627857D01*
X131841904Y-133532619D01*
X131889523Y-133485000D01*
X131984761Y-133437380D01*
X132175238Y-133437380D01*
X132270476Y-133485000D01*
X132318095Y-133532619D01*
X132365714Y-133627857D01*
X132365714Y-133865952D01*
X132318095Y-133961190D01*
X132270476Y-134008809D01*
X132175238Y-134056428D01*
X131984761Y-134056428D01*
X131889523Y-134008809D01*
X131841904Y-133961190D01*
X131794285Y-133865952D01*
X96067619Y-132379404D02*
X97067619Y-132379404D01*
X97067619Y-132141309D01*
X97020000Y-131998452D01*
X96924761Y-131903214D01*
X96829523Y-131855595D01*
X96639047Y-131807976D01*
X96496190Y-131807976D01*
X96305714Y-131855595D01*
X96210476Y-131903214D01*
X96115238Y-131998452D01*
X96067619Y-132141309D01*
X96067619Y-132379404D01*
X97067619Y-130903214D02*
X97067619Y-131379404D01*
X96591428Y-131427023D01*
X96639047Y-131379404D01*
X96686666Y-131284166D01*
X96686666Y-131046071D01*
X96639047Y-130950833D01*
X96591428Y-130903214D01*
X96496190Y-130855595D01*
X96258095Y-130855595D01*
X96162857Y-130903214D01*
X96115238Y-130950833D01*
X96067619Y-131046071D01*
X96067619Y-131284166D01*
X96115238Y-131379404D01*
X96162857Y-131427023D01*
X136921904Y-133437380D02*
X137398095Y-133437380D01*
X137445714Y-133913571D01*
X137398095Y-133865952D01*
X137302857Y-133818333D01*
X137064761Y-133818333D01*
X136969523Y-133865952D01*
X136921904Y-133913571D01*
X136874285Y-134008809D01*
X136874285Y-134246904D01*
X136921904Y-134342142D01*
X136969523Y-134389761D01*
X137064761Y-134437380D01*
X137302857Y-134437380D01*
X137398095Y-134389761D01*
X137445714Y-134342142D01*
X80875238Y-132427023D02*
X80827619Y-132284166D01*
X80827619Y-132046071D01*
X80875238Y-131950833D01*
X80922857Y-131903214D01*
X81018095Y-131855595D01*
X81113333Y-131855595D01*
X81208571Y-131903214D01*
X81256190Y-131950833D01*
X81303809Y-132046071D01*
X81351428Y-132236547D01*
X81399047Y-132331785D01*
X81446666Y-132379404D01*
X81541904Y-132427023D01*
X81637142Y-132427023D01*
X81732380Y-132379404D01*
X81780000Y-132331785D01*
X81827619Y-132236547D01*
X81827619Y-131998452D01*
X81780000Y-131855595D01*
X80827619Y-131427023D02*
X81827619Y-131427023D01*
X80827619Y-130855595D01*
X81827619Y-130855595D01*
X80827619Y-130379404D02*
X81827619Y-130379404D01*
X81827619Y-130141309D01*
X81780000Y-129998452D01*
X81684761Y-129903214D01*
X81589523Y-129855595D01*
X81399047Y-129807976D01*
X81256190Y-129807976D01*
X81065714Y-129855595D01*
X80970476Y-129903214D01*
X80875238Y-129998452D01*
X80827619Y-130141309D01*
X80827619Y-130379404D01*
X121753333Y-132427023D02*
X121753333Y-131950833D01*
X121467619Y-132522261D02*
X122467619Y-132188928D01*
X121467619Y-131855595D01*
X121467619Y-131474642D02*
X121467619Y-131284166D01*
X121515238Y-131188928D01*
X121562857Y-131141309D01*
X121705714Y-131046071D01*
X121896190Y-130998452D01*
X122277142Y-130998452D01*
X122372380Y-131046071D01*
X122420000Y-131093690D01*
X122467619Y-131188928D01*
X122467619Y-131379404D01*
X122420000Y-131474642D01*
X122372380Y-131522261D01*
X122277142Y-131569880D01*
X122039047Y-131569880D01*
X121943809Y-131522261D01*
X121896190Y-131474642D01*
X121848571Y-131379404D01*
X121848571Y-131188928D01*
X121896190Y-131093690D01*
X121943809Y-131046071D01*
X122039047Y-130998452D01*
X124007619Y-131807976D02*
X124483809Y-132141309D01*
X124007619Y-132379404D02*
X125007619Y-132379404D01*
X125007619Y-131998452D01*
X124960000Y-131903214D01*
X124912380Y-131855595D01*
X124817142Y-131807976D01*
X124674285Y-131807976D01*
X124579047Y-131855595D01*
X124531428Y-131903214D01*
X124483809Y-131998452D01*
X124483809Y-132379404D01*
X124055238Y-131427023D02*
X124007619Y-131284166D01*
X124007619Y-131046071D01*
X124055238Y-130950833D01*
X124102857Y-130903214D01*
X124198095Y-130855595D01*
X124293333Y-130855595D01*
X124388571Y-130903214D01*
X124436190Y-130950833D01*
X124483809Y-131046071D01*
X124531428Y-131236547D01*
X124579047Y-131331785D01*
X124626666Y-131379404D01*
X124721904Y-131427023D01*
X124817142Y-131427023D01*
X124912380Y-131379404D01*
X124960000Y-131331785D01*
X125007619Y-131236547D01*
X125007619Y-130998452D01*
X124960000Y-130855595D01*
X125007619Y-130569880D02*
X125007619Y-129998452D01*
X124007619Y-130284166D02*
X125007619Y-130284166D01*
X139342857Y-131807976D02*
X139295238Y-131855595D01*
X139247619Y-131998452D01*
X139247619Y-132093690D01*
X139295238Y-132236547D01*
X139390476Y-132331785D01*
X139485714Y-132379404D01*
X139676190Y-132427023D01*
X139819047Y-132427023D01*
X140009523Y-132379404D01*
X140104761Y-132331785D01*
X140200000Y-132236547D01*
X140247619Y-132093690D01*
X140247619Y-131998452D01*
X140200000Y-131855595D01*
X140152380Y-131807976D01*
X139295238Y-131427023D02*
X139247619Y-131284166D01*
X139247619Y-131046071D01*
X139295238Y-130950833D01*
X139342857Y-130903214D01*
X139438095Y-130855595D01*
X139533333Y-130855595D01*
X139628571Y-130903214D01*
X139676190Y-130950833D01*
X139723809Y-131046071D01*
X139771428Y-131236547D01*
X139819047Y-131331785D01*
X139866666Y-131379404D01*
X139961904Y-131427023D01*
X140057142Y-131427023D01*
X140152380Y-131379404D01*
X140200000Y-131331785D01*
X140247619Y-131236547D01*
X140247619Y-130998452D01*
X140200000Y-130855595D01*
X139247619Y-129903214D02*
X139247619Y-130474642D01*
X139247619Y-130188928D02*
X140247619Y-130188928D01*
X140104761Y-130284166D01*
X140009523Y-130379404D01*
X139961904Y-130474642D01*
X140152380Y-129522261D02*
X140200000Y-129474642D01*
X140247619Y-129379404D01*
X140247619Y-129141309D01*
X140200000Y-129046071D01*
X140152380Y-128998452D01*
X140057142Y-128950833D01*
X139961904Y-128950833D01*
X139819047Y-128998452D01*
X139247619Y-129569880D01*
X139247619Y-128950833D01*
X101147619Y-132379404D02*
X102147619Y-132379404D01*
X102147619Y-132141309D01*
X102100000Y-131998452D01*
X102004761Y-131903214D01*
X101909523Y-131855595D01*
X101719047Y-131807976D01*
X101576190Y-131807976D01*
X101385714Y-131855595D01*
X101290476Y-131903214D01*
X101195238Y-131998452D01*
X101147619Y-132141309D01*
X101147619Y-132379404D01*
X101147619Y-130855595D02*
X101147619Y-131427023D01*
X101147619Y-131141309D02*
X102147619Y-131141309D01*
X102004761Y-131236547D01*
X101909523Y-131331785D01*
X101861904Y-131427023D01*
X117601904Y-133532619D02*
X117554285Y-133485000D01*
X117459047Y-133437380D01*
X117220952Y-133437380D01*
X117125714Y-133485000D01*
X117078095Y-133532619D01*
X117030476Y-133627857D01*
X117030476Y-133723095D01*
X117078095Y-133865952D01*
X117649523Y-134437380D01*
X117030476Y-134437380D01*
X116078095Y-134437380D02*
X116649523Y-134437380D01*
X116363809Y-134437380D02*
X116363809Y-133437380D01*
X116459047Y-133580238D01*
X116554285Y-133675476D01*
X116649523Y-133723095D01*
X91725714Y-133770714D02*
X91725714Y-134437380D01*
X91963809Y-133389761D02*
X92201904Y-134104047D01*
X91582857Y-134104047D01*
X90678095Y-134437380D02*
X91249523Y-134437380D01*
X90963809Y-134437380D02*
X90963809Y-133437380D01*
X91059047Y-133580238D01*
X91154285Y-133675476D01*
X91249523Y-133723095D01*
X94789523Y-133437380D02*
X94170476Y-133437380D01*
X94503809Y-133818333D01*
X94360952Y-133818333D01*
X94265714Y-133865952D01*
X94218095Y-133913571D01*
X94170476Y-134008809D01*
X94170476Y-134246904D01*
X94218095Y-134342142D01*
X94265714Y-134389761D01*
X94360952Y-134437380D01*
X94646666Y-134437380D01*
X94741904Y-134389761D01*
X94789523Y-134342142D01*
X93694285Y-134437380D02*
X93503809Y-134437380D01*
X93408571Y-134389761D01*
X93360952Y-134342142D01*
X93265714Y-134199285D01*
X93218095Y-134008809D01*
X93218095Y-133627857D01*
X93265714Y-133532619D01*
X93313333Y-133485000D01*
X93408571Y-133437380D01*
X93599047Y-133437380D01*
X93694285Y-133485000D01*
X93741904Y-133532619D01*
X93789523Y-133627857D01*
X93789523Y-133865952D01*
X93741904Y-133961190D01*
X93694285Y-134008809D01*
X93599047Y-134056428D01*
X93408571Y-134056428D01*
X93313333Y-134008809D01*
X93265714Y-133961190D01*
X93218095Y-133865952D01*
X127547619Y-132474642D02*
X126547619Y-132236547D01*
X127261904Y-132046071D01*
X126547619Y-131855595D01*
X127547619Y-131617500D01*
X126547619Y-130665119D02*
X127023809Y-130998452D01*
X126547619Y-131236547D02*
X127547619Y-131236547D01*
X127547619Y-130855595D01*
X127500000Y-130760357D01*
X127452380Y-130712738D01*
X127357142Y-130665119D01*
X127214285Y-130665119D01*
X127119047Y-130712738D01*
X127071428Y-130760357D01*
X127023809Y-130855595D01*
X127023809Y-131236547D01*
X140033333Y-133437380D02*
X139414285Y-133437380D01*
X139747619Y-133818333D01*
X139604761Y-133818333D01*
X139509523Y-133865952D01*
X139461904Y-133913571D01*
X139414285Y-134008809D01*
X139414285Y-134246904D01*
X139461904Y-134342142D01*
X139509523Y-134389761D01*
X139604761Y-134437380D01*
X139890476Y-134437380D01*
X139985714Y-134389761D01*
X140033333Y-134342142D01*
X124650476Y-134437380D02*
X125221904Y-134437380D01*
X124936190Y-134437380D02*
X124936190Y-133437380D01*
X125031428Y-133580238D01*
X125126666Y-133675476D01*
X125221904Y-133723095D01*
X123745714Y-133437380D02*
X124221904Y-133437380D01*
X124269523Y-133913571D01*
X124221904Y-133865952D01*
X124126666Y-133818333D01*
X123888571Y-133818333D01*
X123793333Y-133865952D01*
X123745714Y-133913571D01*
X123698095Y-134008809D01*
X123698095Y-134246904D01*
X123745714Y-134342142D01*
X123793333Y-134389761D01*
X123888571Y-134437380D01*
X124126666Y-134437380D01*
X124221904Y-134389761D01*
X124269523Y-134342142D01*
X112521904Y-133532619D02*
X112474285Y-133485000D01*
X112379047Y-133437380D01*
X112140952Y-133437380D01*
X112045714Y-133485000D01*
X111998095Y-133532619D01*
X111950476Y-133627857D01*
X111950476Y-133723095D01*
X111998095Y-133865952D01*
X112569523Y-134437380D01*
X111950476Y-134437380D01*
X111045714Y-133437380D02*
X111521904Y-133437380D01*
X111569523Y-133913571D01*
X111521904Y-133865952D01*
X111426666Y-133818333D01*
X111188571Y-133818333D01*
X111093333Y-133865952D01*
X111045714Y-133913571D01*
X110998095Y-134008809D01*
X110998095Y-134246904D01*
X111045714Y-134342142D01*
X111093333Y-134389761D01*
X111188571Y-134437380D01*
X111426666Y-134437380D01*
X111521904Y-134389761D01*
X111569523Y-134342142D01*
X106513333Y-132427023D02*
X106513333Y-131950833D01*
X106227619Y-132522261D02*
X107227619Y-132188928D01*
X106227619Y-131855595D01*
X107227619Y-131617500D02*
X107227619Y-130998452D01*
X106846666Y-131331785D01*
X106846666Y-131188928D01*
X106799047Y-131093690D01*
X106751428Y-131046071D01*
X106656190Y-130998452D01*
X106418095Y-130998452D01*
X106322857Y-131046071D01*
X106275238Y-131093690D01*
X106227619Y-131188928D01*
X106227619Y-131474642D01*
X106275238Y-131569880D01*
X106322857Y-131617500D01*
X127190476Y-134437380D02*
X127761904Y-134437380D01*
X127476190Y-134437380D02*
X127476190Y-133437380D01*
X127571428Y-133580238D01*
X127666666Y-133675476D01*
X127761904Y-133723095D01*
X126857142Y-133437380D02*
X126238095Y-133437380D01*
X126571428Y-133818333D01*
X126428571Y-133818333D01*
X126333333Y-133865952D01*
X126285714Y-133913571D01*
X126238095Y-134008809D01*
X126238095Y-134246904D01*
X126285714Y-134342142D01*
X126333333Y-134389761D01*
X126428571Y-134437380D01*
X126714285Y-134437380D01*
X126809523Y-134389761D01*
X126857142Y-134342142D01*
X89400000Y-131855595D02*
X89447619Y-131950833D01*
X89447619Y-132093690D01*
X89400000Y-132236547D01*
X89304761Y-132331785D01*
X89209523Y-132379404D01*
X89019047Y-132427023D01*
X88876190Y-132427023D01*
X88685714Y-132379404D01*
X88590476Y-132331785D01*
X88495238Y-132236547D01*
X88447619Y-132093690D01*
X88447619Y-131998452D01*
X88495238Y-131855595D01*
X88542857Y-131807976D01*
X88876190Y-131807976D01*
X88876190Y-131998452D01*
X88447619Y-131379404D02*
X89447619Y-131379404D01*
X88447619Y-130807976D01*
X89447619Y-130807976D01*
X88447619Y-130331785D02*
X89447619Y-130331785D01*
X89447619Y-130093690D01*
X89400000Y-129950833D01*
X89304761Y-129855595D01*
X89209523Y-129807976D01*
X89019047Y-129760357D01*
X88876190Y-129760357D01*
X88685714Y-129807976D01*
X88590476Y-129855595D01*
X88495238Y-129950833D01*
X88447619Y-130093690D01*
X88447619Y-130331785D01*
X141882857Y-131807976D02*
X141835238Y-131855595D01*
X141787619Y-131998452D01*
X141787619Y-132093690D01*
X141835238Y-132236547D01*
X141930476Y-132331785D01*
X142025714Y-132379404D01*
X142216190Y-132427023D01*
X142359047Y-132427023D01*
X142549523Y-132379404D01*
X142644761Y-132331785D01*
X142740000Y-132236547D01*
X142787619Y-132093690D01*
X142787619Y-131998452D01*
X142740000Y-131855595D01*
X142692380Y-131807976D01*
X141835238Y-131427023D02*
X141787619Y-131284166D01*
X141787619Y-131046071D01*
X141835238Y-130950833D01*
X141882857Y-130903214D01*
X141978095Y-130855595D01*
X142073333Y-130855595D01*
X142168571Y-130903214D01*
X142216190Y-130950833D01*
X142263809Y-131046071D01*
X142311428Y-131236547D01*
X142359047Y-131331785D01*
X142406666Y-131379404D01*
X142501904Y-131427023D01*
X142597142Y-131427023D01*
X142692380Y-131379404D01*
X142740000Y-131331785D01*
X142787619Y-131236547D01*
X142787619Y-130998452D01*
X142740000Y-130855595D01*
X141787619Y-129903214D02*
X141787619Y-130474642D01*
X141787619Y-130188928D02*
X142787619Y-130188928D01*
X142644761Y-130284166D01*
X142549523Y-130379404D01*
X142501904Y-130474642D01*
X116673333Y-132427023D02*
X116673333Y-131950833D01*
X116387619Y-132522261D02*
X117387619Y-132188928D01*
X116387619Y-131855595D01*
X117387619Y-131617500D02*
X117387619Y-130950833D01*
X116387619Y-131379404D01*
X86645714Y-133770714D02*
X86645714Y-134437380D01*
X86883809Y-133389761D02*
X87121904Y-134104047D01*
X86502857Y-134104047D01*
X85645714Y-133437380D02*
X86121904Y-133437380D01*
X86169523Y-133913571D01*
X86121904Y-133865952D01*
X86026666Y-133818333D01*
X85788571Y-133818333D01*
X85693333Y-133865952D01*
X85645714Y-133913571D01*
X85598095Y-134008809D01*
X85598095Y-134246904D01*
X85645714Y-134342142D01*
X85693333Y-134389761D01*
X85788571Y-134437380D01*
X86026666Y-134437380D01*
X86121904Y-134389761D01*
X86169523Y-134342142D01*
X134953333Y-133437380D02*
X134286666Y-133437380D01*
X134715238Y-134437380D01*
X129087619Y-132379404D02*
X130087619Y-132379404D01*
X129087619Y-131331785D02*
X129563809Y-131665119D01*
X129087619Y-131903214D02*
X130087619Y-131903214D01*
X130087619Y-131522261D01*
X130040000Y-131427023D01*
X129992380Y-131379404D01*
X129897142Y-131331785D01*
X129754285Y-131331785D01*
X129659047Y-131379404D01*
X129611428Y-131427023D01*
X129563809Y-131522261D01*
X129563809Y-131903214D01*
X128992380Y-130236547D02*
X129040000Y-130331785D01*
X129135238Y-130427023D01*
X129278095Y-130569880D01*
X129325714Y-130665119D01*
X129325714Y-130760357D01*
X129087619Y-130712738D02*
X129135238Y-130807976D01*
X129230476Y-130903214D01*
X129420952Y-130950833D01*
X129754285Y-130950833D01*
X129944761Y-130903214D01*
X130040000Y-130807976D01*
X130087619Y-130712738D01*
X130087619Y-130522261D01*
X130040000Y-130427023D01*
X129944761Y-130331785D01*
X129754285Y-130284166D01*
X129420952Y-130284166D01*
X129230476Y-130331785D01*
X129135238Y-130427023D01*
X129087619Y-130522261D01*
X129087619Y-130712738D01*
X104949523Y-133437380D02*
X104330476Y-133437380D01*
X104663809Y-133818333D01*
X104520952Y-133818333D01*
X104425714Y-133865952D01*
X104378095Y-133913571D01*
X104330476Y-134008809D01*
X104330476Y-134246904D01*
X104378095Y-134342142D01*
X104425714Y-134389761D01*
X104520952Y-134437380D01*
X104806666Y-134437380D01*
X104901904Y-134389761D01*
X104949523Y-134342142D01*
X103378095Y-134437380D02*
X103949523Y-134437380D01*
X103663809Y-134437380D02*
X103663809Y-133437380D01*
X103759047Y-133580238D01*
X103854285Y-133675476D01*
X103949523Y-133723095D01*
X111593333Y-132427023D02*
X111593333Y-131950833D01*
X111307619Y-132522261D02*
X112307619Y-132188928D01*
X111307619Y-131855595D01*
X111307619Y-130998452D02*
X111307619Y-131569880D01*
X111307619Y-131284166D02*
X112307619Y-131284166D01*
X112164761Y-131379404D01*
X112069523Y-131474642D01*
X112021904Y-131569880D01*
X111974285Y-130141309D02*
X111307619Y-130141309D01*
X112355238Y-130379404D02*
X111640952Y-130617500D01*
X111640952Y-129998452D01*
X114133333Y-132427023D02*
X114133333Y-131950833D01*
X113847619Y-132522261D02*
X114847619Y-132188928D01*
X113847619Y-131855595D01*
X113847619Y-130998452D02*
X113847619Y-131569880D01*
X113847619Y-131284166D02*
X114847619Y-131284166D01*
X114704761Y-131379404D01*
X114609523Y-131474642D01*
X114561904Y-131569880D01*
X114752380Y-130617500D02*
X114800000Y-130569880D01*
X114847619Y-130474642D01*
X114847619Y-130236547D01*
X114800000Y-130141309D01*
X114752380Y-130093690D01*
X114657142Y-130046071D01*
X114561904Y-130046071D01*
X114419047Y-130093690D01*
X113847619Y-130665119D01*
X113847619Y-130046071D01*
X109053333Y-132427023D02*
X109053333Y-131950833D01*
X108767619Y-132522261D02*
X109767619Y-132188928D01*
X108767619Y-131855595D01*
X108767619Y-130998452D02*
X108767619Y-131569880D01*
X108767619Y-131284166D02*
X109767619Y-131284166D01*
X109624761Y-131379404D01*
X109529523Y-131474642D01*
X109481904Y-131569880D01*
X91940000Y-131855595D02*
X91987619Y-131950833D01*
X91987619Y-132093690D01*
X91940000Y-132236547D01*
X91844761Y-132331785D01*
X91749523Y-132379404D01*
X91559047Y-132427023D01*
X91416190Y-132427023D01*
X91225714Y-132379404D01*
X91130476Y-132331785D01*
X91035238Y-132236547D01*
X90987619Y-132093690D01*
X90987619Y-131998452D01*
X91035238Y-131855595D01*
X91082857Y-131807976D01*
X91416190Y-131807976D01*
X91416190Y-131998452D01*
X90987619Y-131379404D02*
X91987619Y-131379404D01*
X90987619Y-130807976D01*
X91987619Y-130807976D01*
X90987619Y-130331785D02*
X91987619Y-130331785D01*
X91987619Y-130093690D01*
X91940000Y-129950833D01*
X91844761Y-129855595D01*
X91749523Y-129807976D01*
X91559047Y-129760357D01*
X91416190Y-129760357D01*
X91225714Y-129807976D01*
X91130476Y-129855595D01*
X91035238Y-129950833D01*
X90987619Y-130093690D01*
X90987619Y-130331785D01*
X102409523Y-133437380D02*
X101790476Y-133437380D01*
X102123809Y-133818333D01*
X101980952Y-133818333D01*
X101885714Y-133865952D01*
X101838095Y-133913571D01*
X101790476Y-134008809D01*
X101790476Y-134246904D01*
X101838095Y-134342142D01*
X101885714Y-134389761D01*
X101980952Y-134437380D01*
X102266666Y-134437380D01*
X102361904Y-134389761D01*
X102409523Y-134342142D01*
X101457142Y-133437380D02*
X100838095Y-133437380D01*
X101171428Y-133818333D01*
X101028571Y-133818333D01*
X100933333Y-133865952D01*
X100885714Y-133913571D01*
X100838095Y-134008809D01*
X100838095Y-134246904D01*
X100885714Y-134342142D01*
X100933333Y-134389761D01*
X101028571Y-134437380D01*
X101314285Y-134437380D01*
X101409523Y-134389761D01*
X101457142Y-134342142D01*
X99869523Y-133437380D02*
X99250476Y-133437380D01*
X99583809Y-133818333D01*
X99440952Y-133818333D01*
X99345714Y-133865952D01*
X99298095Y-133913571D01*
X99250476Y-134008809D01*
X99250476Y-134246904D01*
X99298095Y-134342142D01*
X99345714Y-134389761D01*
X99440952Y-134437380D01*
X99726666Y-134437380D01*
X99821904Y-134389761D01*
X99869523Y-134342142D01*
X98345714Y-133437380D02*
X98821904Y-133437380D01*
X98869523Y-133913571D01*
X98821904Y-133865952D01*
X98726666Y-133818333D01*
X98488571Y-133818333D01*
X98393333Y-133865952D01*
X98345714Y-133913571D01*
X98298095Y-134008809D01*
X98298095Y-134246904D01*
X98345714Y-134342142D01*
X98393333Y-134389761D01*
X98488571Y-134437380D01*
X98726666Y-134437380D01*
X98821904Y-134389761D01*
X98869523Y-134342142D01*
X97329523Y-133437380D02*
X96710476Y-133437380D01*
X97043809Y-133818333D01*
X96900952Y-133818333D01*
X96805714Y-133865952D01*
X96758095Y-133913571D01*
X96710476Y-134008809D01*
X96710476Y-134246904D01*
X96758095Y-134342142D01*
X96805714Y-134389761D01*
X96900952Y-134437380D01*
X97186666Y-134437380D01*
X97281904Y-134389761D01*
X97329523Y-134342142D01*
X96377142Y-133437380D02*
X95710476Y-133437380D01*
X96139047Y-134437380D01*
X119213333Y-132427023D02*
X119213333Y-131950833D01*
X118927619Y-132522261D02*
X119927619Y-132188928D01*
X118927619Y-131855595D01*
X118927619Y-130998452D02*
X118927619Y-131569880D01*
X118927619Y-131284166D02*
X119927619Y-131284166D01*
X119784761Y-131379404D01*
X119689523Y-131474642D01*
X119641904Y-131569880D01*
X118927619Y-130046071D02*
X118927619Y-130617500D01*
X118927619Y-130331785D02*
X119927619Y-130331785D01*
X119784761Y-130427023D01*
X119689523Y-130522261D01*
X119641904Y-130617500D01*
X135167619Y-132474642D02*
X134167619Y-132236547D01*
X134881904Y-132046071D01*
X134167619Y-131855595D01*
X135167619Y-131617500D01*
X134453333Y-131284166D02*
X134453333Y-130807976D01*
X134167619Y-131379404D02*
X135167619Y-131046071D01*
X134167619Y-130712738D01*
X134167619Y-130379404D02*
X135167619Y-130379404D01*
X135167619Y-130046071D02*
X135167619Y-129474642D01*
X134167619Y-129760357D02*
X135167619Y-129760357D01*
X129730476Y-134437380D02*
X130301904Y-134437380D01*
X130016190Y-134437380D02*
X130016190Y-133437380D01*
X130111428Y-133580238D01*
X130206666Y-133675476D01*
X130301904Y-133723095D01*
X128778095Y-134437380D02*
X129349523Y-134437380D01*
X129063809Y-134437380D02*
X129063809Y-133437380D01*
X129159047Y-133580238D01*
X129254285Y-133675476D01*
X129349523Y-133723095D01*
X84105714Y-133770714D02*
X84105714Y-134437380D01*
X84343809Y-133389761D02*
X84581904Y-134104047D01*
X83962857Y-134104047D01*
X83677142Y-133437380D02*
X83010476Y-133437380D01*
X83439047Y-134437380D01*
X122110476Y-134437380D02*
X122681904Y-134437380D01*
X122396190Y-134437380D02*
X122396190Y-133437380D01*
X122491428Y-133580238D01*
X122586666Y-133675476D01*
X122681904Y-133723095D01*
X121777142Y-133437380D02*
X121110476Y-133437380D01*
X121539047Y-134437380D01*
X119570476Y-134437380D02*
X120141904Y-134437380D01*
X119856190Y-134437380D02*
X119856190Y-133437380D01*
X119951428Y-133580238D01*
X120046666Y-133675476D01*
X120141904Y-133723095D01*
X119094285Y-134437380D02*
X118903809Y-134437380D01*
X118808571Y-134389761D01*
X118760952Y-134342142D01*
X118665714Y-134199285D01*
X118618095Y-134008809D01*
X118618095Y-133627857D01*
X118665714Y-133532619D01*
X118713333Y-133485000D01*
X118808571Y-133437380D01*
X118999047Y-133437380D01*
X119094285Y-133485000D01*
X119141904Y-133532619D01*
X119189523Y-133627857D01*
X119189523Y-133865952D01*
X119141904Y-133961190D01*
X119094285Y-134008809D01*
X118999047Y-134056428D01*
X118808571Y-134056428D01*
X118713333Y-134008809D01*
X118665714Y-133961190D01*
X118618095Y-133865952D01*
X86288571Y-132379404D02*
X86288571Y-131617500D01*
X85907619Y-131998452D02*
X86669523Y-131998452D01*
X86907619Y-130665119D02*
X86907619Y-131141309D01*
X86431428Y-131188928D01*
X86479047Y-131141309D01*
X86526666Y-131046071D01*
X86526666Y-130807976D01*
X86479047Y-130712738D01*
X86431428Y-130665119D01*
X86336190Y-130617500D01*
X86098095Y-130617500D01*
X86002857Y-130665119D01*
X85955238Y-130712738D01*
X85907619Y-130807976D01*
X85907619Y-131046071D01*
X85955238Y-131141309D01*
X86002857Y-131188928D01*
X81565714Y-133770714D02*
X81565714Y-134437380D01*
X81803809Y-133389761D02*
X82041904Y-134104047D01*
X81422857Y-134104047D01*
X80994285Y-134437380D02*
X80803809Y-134437380D01*
X80708571Y-134389761D01*
X80660952Y-134342142D01*
X80565714Y-134199285D01*
X80518095Y-134008809D01*
X80518095Y-133627857D01*
X80565714Y-133532619D01*
X80613333Y-133485000D01*
X80708571Y-133437380D01*
X80899047Y-133437380D01*
X80994285Y-133485000D01*
X81041904Y-133532619D01*
X81089523Y-133627857D01*
X81089523Y-133865952D01*
X81041904Y-133961190D01*
X80994285Y-134008809D01*
X80899047Y-134056428D01*
X80708571Y-134056428D01*
X80613333Y-134008809D01*
X80565714Y-133961190D01*
X80518095Y-133865952D01*
X109981904Y-133532619D02*
X109934285Y-133485000D01*
X109839047Y-133437380D01*
X109600952Y-133437380D01*
X109505714Y-133485000D01*
X109458095Y-133532619D01*
X109410476Y-133627857D01*
X109410476Y-133723095D01*
X109458095Y-133865952D01*
X110029523Y-134437380D01*
X109410476Y-134437380D01*
X109077142Y-133437380D02*
X108410476Y-133437380D01*
X108839047Y-134437380D01*
X107441904Y-133532619D02*
X107394285Y-133485000D01*
X107299047Y-133437380D01*
X107060952Y-133437380D01*
X106965714Y-133485000D01*
X106918095Y-133532619D01*
X106870476Y-133627857D01*
X106870476Y-133723095D01*
X106918095Y-133865952D01*
X107489523Y-134437380D01*
X106870476Y-134437380D01*
X106394285Y-134437380D02*
X106203809Y-134437380D01*
X106108571Y-134389761D01*
X106060952Y-134342142D01*
X105965714Y-134199285D01*
X105918095Y-134008809D01*
X105918095Y-133627857D01*
X105965714Y-133532619D01*
X106013333Y-133485000D01*
X106108571Y-133437380D01*
X106299047Y-133437380D01*
X106394285Y-133485000D01*
X106441904Y-133532619D01*
X106489523Y-133627857D01*
X106489523Y-133865952D01*
X106441904Y-133961190D01*
X106394285Y-134008809D01*
X106299047Y-134056428D01*
X106108571Y-134056428D01*
X106013333Y-134008809D01*
X105965714Y-133961190D01*
X105918095Y-133865952D01*
X93527619Y-132379404D02*
X94527619Y-132379404D01*
X94527619Y-132141309D01*
X94480000Y-131998452D01*
X94384761Y-131903214D01*
X94289523Y-131855595D01*
X94099047Y-131807976D01*
X93956190Y-131807976D01*
X93765714Y-131855595D01*
X93670476Y-131903214D01*
X93575238Y-131998452D01*
X93527619Y-132141309D01*
X93527619Y-132379404D01*
X94527619Y-131474642D02*
X94527619Y-130807976D01*
X93527619Y-131236547D01*
%LPC*%
D11*
X141605000Y-80685000D03*
X141605000Y-85685000D03*
X95250000Y-109220000D03*
X100250000Y-109220000D03*
X58420000Y-115570000D03*
X58420000Y-110570000D03*
D12*
X63505000Y-116840000D03*
D13*
X66045000Y-116840000D03*
X68585000Y-116840000D03*
X71125000Y-116840000D03*
X73665000Y-116840000D03*
X76205000Y-116840000D03*
X78745000Y-116840000D03*
X81285000Y-116840000D03*
X83825000Y-116840000D03*
X86365000Y-116840000D03*
X86365000Y-109220000D03*
X83825000Y-109220000D03*
X81285000Y-109220000D03*
X78745000Y-109220000D03*
X76205000Y-109220000D03*
X73665000Y-109220000D03*
X71125000Y-109220000D03*
X68585000Y-109220000D03*
X66045000Y-109220000D03*
X63505000Y-109220000D03*
D14*
X83660000Y-122465000D03*
X139860000Y-127565000D03*
D15*
X142240000Y-139700000D03*
X139700000Y-139700000D03*
X137160000Y-139700000D03*
X134620000Y-139700000D03*
X132080000Y-139700000D03*
X129540000Y-139700000D03*
X127000000Y-139700000D03*
X124460000Y-139700000D03*
X121920000Y-139700000D03*
X119380000Y-139700000D03*
X116840000Y-139700000D03*
X114300000Y-139700000D03*
X111760000Y-139700000D03*
X109220000Y-139700000D03*
X106680000Y-139700000D03*
X104140000Y-139700000D03*
X101600000Y-139700000D03*
X99060000Y-139700000D03*
X96520000Y-139700000D03*
X93980000Y-139700000D03*
X91440000Y-139700000D03*
X88900000Y-139700000D03*
X86360000Y-139700000D03*
X83820000Y-139700000D03*
X81280000Y-139700000D03*
D12*
X68580000Y-104140000D03*
D13*
X71120000Y-104140000D03*
X73660000Y-104140000D03*
X76200000Y-104140000D03*
X78740000Y-104140000D03*
X81280000Y-104140000D03*
X83820000Y-104140000D03*
X86360000Y-104140000D03*
X88900000Y-104140000D03*
X91440000Y-104140000D03*
X93980000Y-104140000D03*
X96520000Y-104140000D03*
X99060000Y-104140000D03*
X101600000Y-104140000D03*
X104140000Y-104140000D03*
X106680000Y-104140000D03*
X109220000Y-104140000D03*
X111760000Y-104140000D03*
X114300000Y-104140000D03*
X116840000Y-104140000D03*
X119380000Y-104140000D03*
X121920000Y-104140000D03*
X124460000Y-104140000D03*
X127000000Y-104140000D03*
X127000000Y-81280000D03*
X124460000Y-81280000D03*
X121920000Y-81280000D03*
X119380000Y-81280000D03*
X116840000Y-81280000D03*
X114300000Y-81280000D03*
X111760000Y-81280000D03*
X109220000Y-81280000D03*
X106680000Y-81280000D03*
X104140000Y-81280000D03*
X101600000Y-81280000D03*
X99060000Y-81280000D03*
X96520000Y-81280000D03*
X93980000Y-81280000D03*
X91440000Y-81280000D03*
X88900000Y-81280000D03*
X86360000Y-81280000D03*
X83820000Y-81280000D03*
X81280000Y-81280000D03*
X78740000Y-81280000D03*
X76200000Y-81280000D03*
X73660000Y-81280000D03*
X71120000Y-81280000D03*
X68580000Y-81280000D03*
D12*
X129540000Y-119380000D03*
D13*
X132080000Y-119380000D03*
X134620000Y-119380000D03*
X137160000Y-119380000D03*
X139700000Y-119380000D03*
X142240000Y-119380000D03*
X144780000Y-119380000D03*
X147320000Y-119380000D03*
X149860000Y-119380000D03*
X152400000Y-119380000D03*
X152400000Y-111760000D03*
X149860000Y-111760000D03*
X147320000Y-111760000D03*
X144780000Y-111760000D03*
X142240000Y-111760000D03*
X139700000Y-111760000D03*
X137160000Y-111760000D03*
X134620000Y-111760000D03*
X132080000Y-111760000D03*
X129540000Y-111760000D03*
D11*
X142240000Y-106680000D03*
X142240000Y-101680000D03*
X92710000Y-113030000D03*
D16*
X92710000Y-120650000D03*
D11*
X128270000Y-107950000D03*
X133270000Y-107950000D03*
D12*
X97790000Y-120650000D03*
D13*
X100330000Y-120650000D03*
X102870000Y-120650000D03*
X105410000Y-120650000D03*
X107950000Y-120650000D03*
X110490000Y-120650000D03*
X113030000Y-120650000D03*
X115570000Y-120650000D03*
X118110000Y-120650000D03*
X120650000Y-120650000D03*
X120650000Y-113030000D03*
X118110000Y-113030000D03*
X115570000Y-113030000D03*
X113030000Y-113030000D03*
X110490000Y-113030000D03*
X107950000Y-113030000D03*
X105410000Y-113030000D03*
X102870000Y-113030000D03*
X100330000Y-113030000D03*
X97790000Y-113030000D03*
D17*
X153660000Y-104770000D03*
D18*
X153660000Y-102230000D03*
X153660000Y-99690000D03*
X153660000Y-97150000D03*
X153660000Y-94610000D03*
X153660000Y-92070000D03*
X153660000Y-89530000D03*
X153660000Y-86990000D03*
X153660000Y-84450000D03*
X153660000Y-81910000D03*
X146040000Y-81910000D03*
X146040000Y-84450000D03*
X146040000Y-86990000D03*
X146040000Y-89530000D03*
X146040000Y-92070000D03*
X146040000Y-94610000D03*
X146040000Y-97150000D03*
X146040000Y-99690000D03*
X146040000Y-102230000D03*
X146040000Y-104770000D03*
M02*
