M48
; DRILL file {KiCad (6.0.9)} date Mon May  1 17:43:31 2023
; FORMAT={-:-/ absolute / metric / decimal}
; #@! TF.CreationDate,2023-05-01T17:43:31+02:00
; #@! TF.GenerationSoftware,Kicad,Pcbnew,(6.0.9)
; #@! TF.FileFunction,Plated,1,2,PTH
FMAT,2
METRIC
; #@! TA.AperFunction,Plated,PTH,ViaDrill
T1C0.400
; #@! TA.AperFunction,Plated,PTH,ComponentDrill
T2C0.800
%
G90
G05
T1
X70.485Y-86.995
X72.39Y-85.09
X83.82Y-100.33
X85.725Y-98.425
X91.44Y-129.491
X95.656Y-124.135
X96.52Y-100.965
X97.758Y-130.807
X97.79Y-132.697
X97.868Y-129.396
X99.06Y-100.965
X99.388Y-130.154
X99.695Y-93.345
X100.497Y-123.235
X101.6Y-95.25
X102.295Y-122.458
X104.148Y-122.2
X105.329Y-128.505
X106.532Y-130.145
X107.95Y-131.427
X114.932Y-129.9
X116.464Y-129.105
X116.84Y-85.725
X116.84Y-100.965
X118.11Y-132.697
X119.38Y-85.725
X119.38Y-100.965
X121.92Y-85.725
X122.675Y-128.659
X124.46Y-85.725
X127.0Y-100.965
X128.237Y-132.729
X129.54Y-100.965
X129.54Y-125.48
X135.606Y-117.593
X138.324Y-117.143
X139.7Y-123.252
X140.009Y-98.441
X142.913Y-117.051
T2
X58.42Y-110.57
X58.42Y-115.57
X63.505Y-109.22
X63.505Y-116.84
X66.045Y-109.22
X66.045Y-116.84
X68.58Y-81.28
X68.58Y-104.14
X68.585Y-109.22
X68.585Y-116.84
X71.12Y-81.28
X71.12Y-104.14
X71.125Y-109.22
X71.125Y-116.84
X73.66Y-81.28
X73.66Y-104.14
X73.665Y-109.22
X73.665Y-116.84
X76.2Y-81.28
X76.2Y-104.14
X76.205Y-109.22
X76.205Y-116.84
X78.74Y-81.28
X78.74Y-104.14
X78.745Y-109.22
X78.745Y-116.84
X81.28Y-81.28
X81.28Y-104.14
X81.285Y-109.22
X81.285Y-116.84
X83.82Y-81.28
X83.82Y-104.14
X83.825Y-109.22
X83.825Y-116.84
X86.36Y-81.28
X86.36Y-104.14
X86.365Y-109.22
X86.365Y-116.84
X88.9Y-81.28
X88.9Y-104.14
X91.44Y-81.28
X91.44Y-104.14
X92.71Y-113.03
X92.71Y-120.65
X93.98Y-81.28
X93.98Y-104.14
X95.25Y-109.22
X96.52Y-81.28
X96.52Y-104.14
X97.79Y-113.03
X97.79Y-120.65
X99.06Y-81.28
X99.06Y-104.14
X100.25Y-109.22
X100.33Y-113.03
X100.33Y-120.65
X101.6Y-81.28
X101.6Y-104.14
X102.87Y-113.03
X102.87Y-120.65
X104.14Y-81.28
X104.14Y-104.14
X105.41Y-113.03
X105.41Y-120.65
X106.68Y-81.28
X106.68Y-104.14
X107.95Y-113.03
X107.95Y-120.65
X109.22Y-81.28
X109.22Y-104.14
X110.49Y-113.03
X110.49Y-120.65
X111.76Y-81.28
X111.76Y-104.14
X113.03Y-113.03
X113.03Y-120.65
X114.3Y-81.28
X114.3Y-104.14
X115.57Y-113.03
X115.57Y-120.65
X116.84Y-81.28
X116.84Y-104.14
X118.11Y-113.03
X118.11Y-120.65
X119.38Y-81.28
X119.38Y-104.14
X120.65Y-113.03
X120.65Y-120.65
X121.92Y-81.28
X121.92Y-104.14
X124.46Y-81.28
X124.46Y-104.14
X127.0Y-81.28
X127.0Y-104.14
X128.27Y-107.95
X129.54Y-111.76
X129.54Y-119.38
X132.08Y-111.76
X132.08Y-119.38
X133.27Y-107.95
X134.62Y-111.76
X134.62Y-119.38
X137.16Y-111.76
X137.16Y-119.38
X139.7Y-111.76
X139.7Y-119.38
X141.605Y-80.685
X141.605Y-85.685
X142.24Y-101.68
X142.24Y-106.68
X142.24Y-111.76
X142.24Y-119.38
X144.78Y-111.76
X144.78Y-119.38
X146.04Y-81.91
X146.04Y-84.45
X146.04Y-86.99
X146.04Y-89.53
X146.04Y-92.07
X146.04Y-94.61
X146.04Y-97.15
X146.04Y-99.69
X146.04Y-102.23
X146.04Y-104.77
X147.32Y-111.76
X147.32Y-119.38
X149.86Y-111.76
X149.86Y-119.38
X152.4Y-111.76
X152.4Y-119.38
X153.66Y-81.91
X153.66Y-84.45
X153.66Y-86.99
X153.66Y-89.53
X153.66Y-92.07
X153.66Y-94.61
X153.66Y-97.15
X153.66Y-99.69
X153.66Y-102.23
X153.66Y-104.77
T0
M30
