G04 #@! TF.GenerationSoftware,KiCad,Pcbnew,(6.0.9)*
G04 #@! TF.CreationDate,2023-05-01T17:42:55+02:00*
G04 #@! TF.ProjectId,05_Cartucho_MSX_Tang_Nano_9k_Mapper,30355f43-6172-4747-9563-686f5f4d5358,rev?*
G04 #@! TF.SameCoordinates,Original*
G04 #@! TF.FileFunction,Copper,L1,Top*
G04 #@! TF.FilePolarity,Positive*
%FSLAX46Y46*%
G04 Gerber Fmt 4.6, Leading zero omitted, Abs format (unit mm)*
G04 Created by KiCad (PCBNEW (6.0.9)) date 2023-05-01 17:42:55*
%MOMM*%
%LPD*%
G01*
G04 APERTURE LIST*
G04 #@! TA.AperFunction,ComponentPad*
%ADD10C,1.600000*%
G04 #@! TD*
G04 #@! TA.AperFunction,ComponentPad*
%ADD11R,1.600000X2.400000*%
G04 #@! TD*
G04 #@! TA.AperFunction,ComponentPad*
%ADD12O,1.600000X2.400000*%
G04 #@! TD*
G04 #@! TA.AperFunction,SMDPad,CuDef*
%ADD13R,1.270000X7.620000*%
G04 #@! TD*
G04 #@! TA.AperFunction,ComponentPad*
%ADD14O,1.600000X1.600000*%
G04 #@! TD*
G04 #@! TA.AperFunction,ComponentPad*
%ADD15R,2.400000X1.600000*%
G04 #@! TD*
G04 #@! TA.AperFunction,ComponentPad*
%ADD16O,2.400000X1.600000*%
G04 #@! TD*
G04 #@! TA.AperFunction,ViaPad*
%ADD17C,0.800000*%
G04 #@! TD*
G04 #@! TA.AperFunction,Conductor*
%ADD18C,0.450000*%
G04 #@! TD*
G04 #@! TA.AperFunction,Conductor*
%ADD19C,1.000000*%
G04 #@! TD*
G04 #@! TA.AperFunction,Conductor*
%ADD20C,0.300000*%
G04 #@! TD*
G04 APERTURE END LIST*
D10*
X141605000Y-80685000D03*
X141605000Y-85685000D03*
X95250000Y-109220000D03*
X100250000Y-109220000D03*
X58420000Y-115570000D03*
X58420000Y-110570000D03*
D11*
X63505000Y-116840000D03*
D12*
X66045000Y-116840000D03*
X68585000Y-116840000D03*
X71125000Y-116840000D03*
X73665000Y-116840000D03*
X76205000Y-116840000D03*
X78745000Y-116840000D03*
X81285000Y-116840000D03*
X83825000Y-116840000D03*
X86365000Y-116840000D03*
X86365000Y-109220000D03*
X83825000Y-109220000D03*
X81285000Y-109220000D03*
X78745000Y-109220000D03*
X76205000Y-109220000D03*
X73665000Y-109220000D03*
X71125000Y-109220000D03*
X68585000Y-109220000D03*
X66045000Y-109220000D03*
X63505000Y-109220000D03*
D13*
X142240000Y-139700000D03*
X139700000Y-139700000D03*
X137160000Y-139700000D03*
X134620000Y-139700000D03*
X132080000Y-139700000D03*
X129540000Y-139700000D03*
X127000000Y-139700000D03*
X124460000Y-139700000D03*
X121920000Y-139700000D03*
X119380000Y-139700000D03*
X116840000Y-139700000D03*
X114300000Y-139700000D03*
X111760000Y-139700000D03*
X109220000Y-139700000D03*
X106680000Y-139700000D03*
X104140000Y-139700000D03*
X101600000Y-139700000D03*
X99060000Y-139700000D03*
X96520000Y-139700000D03*
X93980000Y-139700000D03*
X91440000Y-139700000D03*
X88900000Y-138430000D03*
X86360000Y-139700000D03*
X83820000Y-139700000D03*
X81280000Y-139700000D03*
D11*
X68580000Y-104140000D03*
D12*
X71120000Y-104140000D03*
X73660000Y-104140000D03*
X76200000Y-104140000D03*
X78740000Y-104140000D03*
X81280000Y-104140000D03*
X83820000Y-104140000D03*
X86360000Y-104140000D03*
X88900000Y-104140000D03*
X91440000Y-104140000D03*
X93980000Y-104140000D03*
X96520000Y-104140000D03*
X99060000Y-104140000D03*
X101600000Y-104140000D03*
X104140000Y-104140000D03*
X106680000Y-104140000D03*
X109220000Y-104140000D03*
X111760000Y-104140000D03*
X114300000Y-104140000D03*
X116840000Y-104140000D03*
X119380000Y-104140000D03*
X121920000Y-104140000D03*
X124460000Y-104140000D03*
X127000000Y-104140000D03*
X127000000Y-81280000D03*
X124460000Y-81280000D03*
X121920000Y-81280000D03*
X119380000Y-81280000D03*
X116840000Y-81280000D03*
X114300000Y-81280000D03*
X111760000Y-81280000D03*
X109220000Y-81280000D03*
X106680000Y-81280000D03*
X104140000Y-81280000D03*
X101600000Y-81280000D03*
X99060000Y-81280000D03*
X96520000Y-81280000D03*
X93980000Y-81280000D03*
X91440000Y-81280000D03*
X88900000Y-81280000D03*
X86360000Y-81280000D03*
X83820000Y-81280000D03*
X81280000Y-81280000D03*
X78740000Y-81280000D03*
X76200000Y-81280000D03*
X73660000Y-81280000D03*
X71120000Y-81280000D03*
X68580000Y-81280000D03*
D11*
X129540000Y-119380000D03*
D12*
X132080000Y-119380000D03*
X134620000Y-119380000D03*
X137160000Y-119380000D03*
X139700000Y-119380000D03*
X142240000Y-119380000D03*
X144780000Y-119380000D03*
X147320000Y-119380000D03*
X149860000Y-119380000D03*
X152400000Y-119380000D03*
X152400000Y-111760000D03*
X149860000Y-111760000D03*
X147320000Y-111760000D03*
X144780000Y-111760000D03*
X142240000Y-111760000D03*
X139700000Y-111760000D03*
X137160000Y-111760000D03*
X134620000Y-111760000D03*
X132080000Y-111760000D03*
X129540000Y-111760000D03*
D10*
X142240000Y-106680000D03*
X142240000Y-101680000D03*
X92710000Y-113030000D03*
D14*
X92710000Y-120650000D03*
D10*
X128270000Y-107950000D03*
X133270000Y-107950000D03*
D11*
X97790000Y-120650000D03*
D12*
X100330000Y-120650000D03*
X102870000Y-120650000D03*
X105410000Y-120650000D03*
X107950000Y-120650000D03*
X110490000Y-120650000D03*
X113030000Y-120650000D03*
X115570000Y-120650000D03*
X118110000Y-120650000D03*
X120650000Y-120650000D03*
X120650000Y-113030000D03*
X118110000Y-113030000D03*
X115570000Y-113030000D03*
X113030000Y-113030000D03*
X110490000Y-113030000D03*
X107950000Y-113030000D03*
X105410000Y-113030000D03*
X102870000Y-113030000D03*
X100330000Y-113030000D03*
X97790000Y-113030000D03*
D15*
X153660000Y-104770000D03*
D16*
X153660000Y-102230000D03*
X153660000Y-99690000D03*
X153660000Y-97150000D03*
X153660000Y-94610000D03*
X153660000Y-92070000D03*
X153660000Y-89530000D03*
X153660000Y-86990000D03*
X153660000Y-84450000D03*
X153660000Y-81910000D03*
X146040000Y-81910000D03*
X146040000Y-84450000D03*
X146040000Y-86990000D03*
X146040000Y-89530000D03*
X146040000Y-92070000D03*
X146040000Y-94610000D03*
X146040000Y-97150000D03*
X146040000Y-99690000D03*
X146040000Y-102230000D03*
X146040000Y-104770000D03*
D17*
X99060000Y-100965000D03*
X119380000Y-100965000D03*
X85725000Y-98425000D03*
X116840000Y-85725000D03*
X99695000Y-93345000D03*
X70485000Y-86995000D03*
X96520000Y-100965000D03*
X127000000Y-100965000D03*
X119380000Y-85725000D03*
X101600000Y-95250000D03*
X121920000Y-85725000D03*
X124460000Y-85725000D03*
X83820000Y-100330000D03*
X72390000Y-85090000D03*
X129540000Y-100965000D03*
X116840000Y-100965000D03*
X129540000Y-125480000D03*
X128237000Y-132729000D03*
X139700000Y-123252000D03*
X95656100Y-124135000D03*
X91440000Y-129491000D03*
X102295000Y-122458000D03*
X97868000Y-129396000D03*
X99388300Y-130154000D03*
X97790000Y-132697000D03*
X104148000Y-122200000D03*
X97757900Y-130807000D03*
X100497000Y-123235000D03*
X107950000Y-131427000D03*
X106532000Y-130145000D03*
X105329000Y-128505000D03*
X118110000Y-132697000D03*
X116464000Y-129105000D03*
X114932000Y-129900000D03*
X142913000Y-117051000D03*
X138324000Y-117143000D03*
X140009000Y-98441400D03*
X135606000Y-117593000D03*
X122675000Y-128659000D03*
D18*
X102358000Y-114685000D02*
X101600000Y-113927000D01*
X95885000Y-109855000D02*
X92710000Y-113030000D01*
X97790000Y-113030000D02*
X97790000Y-111405000D01*
X101600000Y-112154000D02*
X100851000Y-111405000D01*
X97790000Y-111405000D02*
X97434900Y-111405000D01*
X144150000Y-104770000D02*
X142240000Y-106680000D01*
X87274900Y-107595000D02*
X63505000Y-107595000D01*
X129540000Y-114685000D02*
X129540000Y-111760000D01*
X146040000Y-104770000D02*
X144150000Y-104770000D01*
X101600000Y-113927000D02*
X101600000Y-112154000D01*
X95885000Y-109855000D02*
X95250000Y-109220000D01*
X63505000Y-107595000D02*
X63505000Y-109220000D01*
X153660000Y-104770000D02*
X146040000Y-104770000D01*
X97434900Y-111405000D02*
X95885000Y-109855000D01*
X100851000Y-111405000D02*
X97790000Y-111405000D01*
X92710000Y-113030000D02*
X87274900Y-107595000D01*
X129540000Y-114685000D02*
X102358000Y-114685000D01*
X129540000Y-119380000D02*
X129540000Y-114685000D01*
D19*
X96520000Y-100965000D02*
X99060000Y-100965000D01*
X121920000Y-85725000D02*
X124460000Y-85725000D01*
D18*
X142790000Y-102230000D02*
X142240000Y-101680000D01*
X100330000Y-114655000D02*
X99770200Y-115215000D01*
X81995300Y-110845000D02*
X86365000Y-115215000D01*
D19*
X99695000Y-93345000D02*
X101600000Y-95250000D01*
D18*
X86365000Y-116840000D02*
X86365000Y-115215000D01*
X66045000Y-109220000D02*
X66045000Y-110845000D01*
X120650000Y-119025000D02*
X104700000Y-119025000D01*
D19*
X119380000Y-85725000D02*
X116840000Y-85725000D01*
D18*
X152400000Y-119380000D02*
X152400000Y-117755000D01*
D19*
X127000000Y-100965000D02*
X129540000Y-100965000D01*
X116840000Y-100965000D02*
X119380000Y-100965000D01*
X83820000Y-100330000D02*
X85725000Y-98425000D01*
X70485000Y-86995000D02*
X72390000Y-85090000D01*
D18*
X148260000Y-85685000D02*
X152035000Y-81910000D01*
X58695100Y-110845000D02*
X58420000Y-110570000D01*
X152400000Y-117755000D02*
X148030000Y-113385000D01*
X99770200Y-115215000D02*
X86365000Y-115215000D01*
X66045000Y-110845000D02*
X58695100Y-110845000D01*
X132080000Y-113385000D02*
X132080000Y-111760000D01*
X152035000Y-81910000D02*
X153660000Y-81910000D01*
X104700000Y-119025000D02*
X100330000Y-114655000D01*
X146040000Y-102230000D02*
X142790000Y-102230000D01*
X120650000Y-120650000D02*
X120650000Y-119025000D01*
X148030000Y-113385000D02*
X132080000Y-113385000D01*
X141605000Y-85685000D02*
X148260000Y-85685000D01*
X66045000Y-110845000D02*
X81995300Y-110845000D01*
X100330000Y-113030000D02*
X100330000Y-114655000D01*
X111760000Y-79654900D02*
X140575000Y-79654900D01*
X111760000Y-81280000D02*
X111760000Y-79654900D01*
X140575000Y-79654900D02*
X141605000Y-80685000D01*
D20*
X87544900Y-133985000D02*
X88900000Y-133985000D01*
X88900000Y-133985000D02*
X88900000Y-138430000D01*
X86360000Y-135170000D02*
X87544900Y-133985000D01*
X86360000Y-139700000D02*
X86360000Y-135170000D01*
X109220000Y-134885000D02*
X105016000Y-130680000D01*
X100192000Y-127646000D02*
X75939800Y-127646000D01*
X75939800Y-127646000D02*
X66684400Y-118390000D01*
X105016000Y-130680000D02*
X103227000Y-130680000D01*
X103227000Y-130680000D02*
X100192000Y-127646000D01*
X66045000Y-118390000D02*
X66045000Y-116840000D01*
X109220000Y-139700000D02*
X109220000Y-134885000D01*
X66684400Y-118390000D02*
X66045000Y-118390000D01*
X129540000Y-139700000D02*
X129540000Y-125480000D01*
X128237000Y-132729000D02*
X127000000Y-133967000D01*
X127000000Y-133967000D02*
X127000000Y-139700000D01*
X139700000Y-119380000D02*
X139700000Y-123252000D01*
X127348000Y-124135000D02*
X95656100Y-124135000D01*
X130690000Y-118716000D02*
X130690000Y-120793000D01*
X144780000Y-117830000D02*
X143226000Y-116276000D01*
X143226000Y-116276000D02*
X133130000Y-116276000D01*
X91440000Y-129491000D02*
X91440000Y-139700000D01*
X130690000Y-120793000D02*
X127348000Y-124135000D01*
X144780000Y-119380000D02*
X144780000Y-117830000D01*
X133130000Y-116276000D02*
X130690000Y-118716000D01*
X100330000Y-122200000D02*
X102036000Y-122200000D01*
X102036000Y-122200000D02*
X102295000Y-122458000D01*
X100330000Y-120650000D02*
X100330000Y-122200000D01*
X99746100Y-129396000D02*
X97868000Y-129396000D01*
X101600000Y-131250000D02*
X99746100Y-129396000D01*
X101600000Y-139700000D02*
X101600000Y-131250000D01*
X99060000Y-139700000D02*
X99060000Y-130482000D01*
X99060000Y-130482000D02*
X99388300Y-130154000D01*
X96520000Y-133967000D02*
X96520000Y-139700000D01*
X97790000Y-132697000D02*
X96520000Y-133967000D01*
X115570000Y-122200000D02*
X104148000Y-122200000D01*
X115570000Y-120650000D02*
X115570000Y-122200000D01*
X93980000Y-134585000D02*
X93980000Y-139700000D01*
X97757900Y-130807000D02*
X93980000Y-134585000D01*
X117075000Y-123235000D02*
X100497000Y-123235000D01*
X118110000Y-120650000D02*
X118110000Y-122200000D01*
X118110000Y-122200000D02*
X117075000Y-123235000D01*
X77340300Y-127145000D02*
X100753000Y-127145000D01*
X100753000Y-127145000D02*
X103752000Y-130145000D01*
X105472000Y-130145000D02*
X106754000Y-131427000D01*
X103752000Y-130145000D02*
X105472000Y-130145000D01*
X106754000Y-131427000D02*
X107950000Y-131427000D01*
X68585000Y-118390000D02*
X77340300Y-127145000D01*
X68585000Y-116840000D02*
X68585000Y-118390000D01*
X106680000Y-139700000D02*
X106680000Y-134841000D01*
X64869100Y-115932000D02*
X65510900Y-115290000D01*
X106680000Y-134841000D02*
X99984900Y-128146000D01*
X65510900Y-115290000D02*
X71125000Y-115290000D01*
X66219500Y-119340000D02*
X64869100Y-117989000D01*
X64869100Y-117989000D02*
X64869100Y-115932000D01*
X75732700Y-128146000D02*
X66926700Y-119340000D01*
X71125000Y-115290000D02*
X71125000Y-116840000D01*
X99984900Y-128146000D02*
X75732700Y-128146000D01*
X66926700Y-119340000D02*
X66219500Y-119340000D01*
X106015000Y-129627000D02*
X105345000Y-129627000D01*
X73665000Y-118390000D02*
X73665000Y-116840000D01*
X102144000Y-126427000D02*
X81701600Y-126427000D01*
X106532000Y-130145000D02*
X106015000Y-129627000D01*
X105345000Y-129627000D02*
X102144000Y-126427000D01*
X81701600Y-126427000D02*
X73665000Y-118390000D01*
X75525600Y-128646000D02*
X99777600Y-128646000D01*
X62354500Y-115414000D02*
X62354500Y-118198000D01*
X76205000Y-116840000D02*
X76205000Y-115290000D01*
X62354500Y-118198000D02*
X64173000Y-120017000D01*
X76205000Y-115290000D02*
X75696300Y-114781000D01*
X62987400Y-114781000D02*
X62354500Y-115414000D01*
X99777600Y-128646000D02*
X104140000Y-133008000D01*
X75696300Y-114781000D02*
X62987400Y-114781000D01*
X64173000Y-120017000D02*
X66896500Y-120017000D01*
X104140000Y-133008000D02*
X104140000Y-139700000D01*
X66896500Y-120017000D02*
X75525600Y-128646000D01*
X78745000Y-118390000D02*
X78745000Y-116840000D01*
X91329800Y-125895000D02*
X85099500Y-119665000D01*
X80019700Y-119665000D02*
X78745000Y-118390000D01*
X102719000Y-125895000D02*
X91329800Y-125895000D01*
X85099500Y-119665000D02*
X80019700Y-119665000D01*
X105329000Y-128505000D02*
X102719000Y-125895000D01*
X103379000Y-125395000D02*
X91721500Y-125395000D01*
X91721500Y-125395000D02*
X85491100Y-119165000D01*
X115219000Y-130673000D02*
X108657000Y-130673000D01*
X85491100Y-119165000D02*
X82059500Y-119165000D01*
X116464000Y-129105000D02*
X116464000Y-129429000D01*
X82059500Y-119165000D02*
X81285000Y-118390000D01*
X116464000Y-129429000D02*
X115219000Y-130673000D01*
X116840000Y-133967000D02*
X118110000Y-132697000D01*
X116840000Y-139700000D02*
X116840000Y-133967000D01*
X81285000Y-118390000D02*
X81285000Y-116840000D01*
X108657000Y-130673000D02*
X103379000Y-125395000D01*
X85777300Y-118390000D02*
X92282100Y-124895000D01*
X109927000Y-124895000D02*
X114932000Y-129900000D01*
X83825000Y-116840000D02*
X83825000Y-118390000D01*
X92282100Y-124895000D02*
X109927000Y-124895000D01*
X83825000Y-118390000D02*
X85777300Y-118390000D01*
X129904000Y-124024000D02*
X134607000Y-124024000D01*
X134607000Y-124024000D02*
X138430000Y-120201000D01*
X139991000Y-117051000D02*
X142913000Y-117051000D01*
X138430000Y-118612000D02*
X139991000Y-117051000D01*
X121920000Y-132009000D02*
X129904000Y-124024000D01*
X138430000Y-120201000D02*
X138430000Y-118612000D01*
X121920000Y-139700000D02*
X121920000Y-132009000D01*
X119380000Y-133842000D02*
X119380000Y-139700000D01*
X131291000Y-121931000D02*
X119380000Y-133842000D01*
X135890000Y-120197000D02*
X134157000Y-121931000D01*
X137350000Y-117143000D02*
X135890000Y-118603000D01*
X134157000Y-121931000D02*
X131291000Y-121931000D01*
X138324000Y-117143000D02*
X137350000Y-117143000D01*
X135890000Y-118603000D02*
X135890000Y-120197000D01*
X152110000Y-92070000D02*
X152110000Y-93135700D01*
X146804000Y-98441400D02*
X140009000Y-98441400D01*
X153660000Y-92070000D02*
X152110000Y-92070000D01*
X152110000Y-93135700D02*
X146804000Y-98441400D01*
X133350000Y-118558000D02*
X134314000Y-117593000D01*
X123031000Y-129409000D02*
X131010000Y-121430000D01*
X134314000Y-117593000D02*
X135606000Y-117593000D01*
X132068000Y-121430000D02*
X133350000Y-120149000D01*
X114300000Y-139700000D02*
X114300000Y-134887000D01*
X119778000Y-129409000D02*
X123031000Y-129409000D01*
X114300000Y-134887000D02*
X119778000Y-129409000D01*
X131010000Y-121430000D02*
X132068000Y-121430000D01*
X133350000Y-120149000D02*
X133350000Y-118558000D01*
X117973000Y-128659000D02*
X122675000Y-128659000D01*
X111760000Y-139700000D02*
X111760000Y-134872000D01*
X111760000Y-134872000D02*
X117973000Y-128659000D01*
X97790000Y-119307000D02*
X97790000Y-120650000D01*
X95203100Y-119307000D02*
X97790000Y-119307000D01*
X92710000Y-120650000D02*
X93860100Y-120650000D01*
X93860100Y-120650000D02*
X95203100Y-119307000D01*
X149860000Y-119380000D02*
X149860000Y-122173000D01*
X149860000Y-122173000D02*
X137160000Y-134873000D01*
X137160000Y-134873000D02*
X137160000Y-139700000D01*
X147320000Y-117830000D02*
X150350000Y-117830000D01*
X147320000Y-119380000D02*
X147320000Y-117830000D01*
X150350000Y-117830000D02*
X151030000Y-118510000D01*
X151030000Y-122383000D02*
X139700000Y-133713000D01*
X139700000Y-133713000D02*
X139700000Y-139700000D01*
X151030000Y-118510000D02*
X151030000Y-122383000D01*
X143570000Y-82830100D02*
X144490000Y-81910000D01*
X109220000Y-82830100D02*
X143570000Y-82830100D01*
X144490000Y-81910000D02*
X146040000Y-81910000D01*
X109220000Y-81280000D02*
X109220000Y-82830100D01*
X106680000Y-82830100D02*
X106680000Y-81280000D01*
X108300000Y-84450000D02*
X106680000Y-82830100D01*
X146040000Y-84450000D02*
X108300000Y-84450000D01*
X104140000Y-82830100D02*
X104140000Y-81280000D01*
X108300000Y-86990000D02*
X104140000Y-82830100D01*
X146040000Y-86990000D02*
X108300000Y-86990000D01*
X146040000Y-89530000D02*
X108300000Y-89530000D01*
X108300000Y-89530000D02*
X101600000Y-82830100D01*
X101600000Y-82830100D02*
X101600000Y-81280000D01*
X108300000Y-92070000D02*
X99060000Y-82830100D01*
X146040000Y-92070000D02*
X108300000Y-92070000D01*
X99060000Y-82830100D02*
X99060000Y-81280000D01*
X96520000Y-82830100D02*
X96520000Y-81280000D01*
X146040000Y-94610000D02*
X108300000Y-94610000D01*
X108300000Y-94610000D02*
X96520000Y-82830100D01*
X146040000Y-97150000D02*
X108300000Y-97150000D01*
X108300000Y-97150000D02*
X93980000Y-82830100D01*
X93980000Y-82830100D02*
X93980000Y-81280000D01*
X108300000Y-99690000D02*
X91440000Y-82830100D01*
X146040000Y-99690000D02*
X108300000Y-99690000D01*
X91440000Y-82830100D02*
X91440000Y-81280000D01*
X148658000Y-112605000D02*
X148658000Y-110840000D01*
X146679000Y-108861000D02*
X142088000Y-108861000D01*
X137366000Y-104140000D02*
X127000000Y-104140000D01*
X152400000Y-111760000D02*
X152400000Y-113310000D01*
X152400000Y-113310000D02*
X149362000Y-113310000D01*
X142088000Y-108861000D02*
X137366000Y-104140000D01*
X148658000Y-110840000D02*
X146679000Y-108861000D01*
X149362000Y-113310000D02*
X148658000Y-112605000D01*
X136524000Y-102590000D02*
X124460000Y-102590000D01*
X149860000Y-111760000D02*
X149860000Y-110210000D01*
X124460000Y-102590000D02*
X124460000Y-104140000D01*
X142206000Y-108273000D02*
X136524000Y-102590000D01*
X147923000Y-108273000D02*
X142206000Y-108273000D01*
X149860000Y-110210000D02*
X147923000Y-108273000D01*
X137824000Y-105690000D02*
X141556000Y-109422000D01*
X146532000Y-109422000D02*
X147320000Y-110210000D01*
X141556000Y-109422000D02*
X146532000Y-109422000D01*
X121920000Y-105690000D02*
X137824000Y-105690000D01*
X121920000Y-104140000D02*
X121920000Y-105690000D01*
X147320000Y-110210000D02*
X147320000Y-111760000D01*
X137203000Y-106190000D02*
X141222000Y-110210000D01*
X119380000Y-104140000D02*
X119380000Y-105690000D01*
X119880000Y-106190000D02*
X137203000Y-106190000D01*
X141222000Y-110210000D02*
X144780000Y-110210000D01*
X119380000Y-105690000D02*
X119880000Y-106190000D01*
X144780000Y-110210000D02*
X144780000Y-111760000D01*
X116840000Y-104140000D02*
X116840000Y-105690000D01*
X116840000Y-105690000D02*
X117904000Y-106754000D01*
X137059000Y-106754000D02*
X142065000Y-111760000D01*
X117904000Y-106754000D02*
X137059000Y-106754000D01*
X142065000Y-111760000D02*
X142240000Y-111760000D01*
X114300000Y-105690000D02*
X114300000Y-104140000D01*
X138700000Y-109210000D02*
X117820000Y-109210000D01*
X139700000Y-110210000D02*
X138700000Y-109210000D01*
X139700000Y-111760000D02*
X139700000Y-110210000D01*
X117820000Y-109210000D02*
X114300000Y-105690000D01*
X111760000Y-104140000D02*
X111760000Y-105690000D01*
X115780000Y-109710000D02*
X136660000Y-109710000D01*
X136660000Y-109710000D02*
X137160000Y-110210000D01*
X137160000Y-110210000D02*
X137160000Y-111760000D01*
X111760000Y-105690000D02*
X115780000Y-109710000D01*
X115290000Y-110210000D02*
X134620000Y-110210000D01*
X109220000Y-104140000D02*
X115290000Y-110210000D01*
X134620000Y-110210000D02*
X134620000Y-111760000D01*
X115570000Y-111480000D02*
X109780000Y-105690000D01*
X115570000Y-113030000D02*
X115570000Y-111480000D01*
X103490000Y-105690000D02*
X101940000Y-104140000D01*
X109780000Y-105690000D02*
X103490000Y-105690000D01*
X101940000Y-104140000D02*
X101600000Y-104140000D01*
X110490000Y-111480000D02*
X110490000Y-113030000D01*
X108322000Y-111480000D02*
X110490000Y-111480000D01*
X102533000Y-105690000D02*
X108322000Y-111480000D01*
X96520000Y-105690000D02*
X102533000Y-105690000D01*
X96520000Y-104140000D02*
X96520000Y-105690000D01*
X101110000Y-106190000D02*
X107950000Y-113030000D01*
X95769800Y-105690000D02*
X96269900Y-106190000D01*
X93980000Y-104140000D02*
X93980000Y-105690000D01*
X93980000Y-105690000D02*
X95769800Y-105690000D01*
X96269900Y-106190000D02*
X101110000Y-106190000D01*
X96062700Y-106690000D02*
X100620000Y-106690000D01*
X91440000Y-105690000D02*
X91940100Y-106190000D01*
X105410000Y-111480000D02*
X105410000Y-113030000D01*
X91940100Y-106190000D02*
X95562600Y-106190000D01*
X91440000Y-104140000D02*
X91440000Y-105690000D01*
X95562600Y-106190000D02*
X96062700Y-106690000D01*
X100620000Y-106690000D02*
X105410000Y-111480000D01*
X102870000Y-113030000D02*
X102870000Y-111480000D01*
X88900000Y-105690000D02*
X88900000Y-104140000D01*
X102870000Y-111480000D02*
X102167000Y-110777000D01*
X95456800Y-107020000D02*
X90229600Y-107020000D01*
X99213900Y-110777000D02*
X95456800Y-107020000D01*
X102167000Y-110777000D02*
X99213900Y-110777000D01*
X90229600Y-107020000D02*
X88900000Y-105690000D01*
M02*
